<svg xmlns="http://www.w3.org/2000/svg" width="64" height="64" viewBox="0 0 64 64" version="1.1"><path d="M 52.333 2.667 L 53 3.333 53.667 2.667 L 54.333 2 53 2 L 51.667 2 52.333 2.667 M 46.500 6.500 L 46.500 9 47.367 9 L 48.233 9 47.710 11 L 47.187 13 47.930 13 L 48.672 13 50.250 18.750 L 51.829 24.500 52.953 28.750 L 54.077 33 54.933 33 L 55.789 33 55 29.500 L 54.211 26 54.855 25.985 L 55.500 25.969 54.414 25.235 L 53.328 24.500 52.152 21.066 L 50.976 17.633 52.238 16.832 L 53.500 16.031 51.750 16.015 L 50 16 49.885 13.750 L 49.769 11.500 49.537 10.500 L 49.305 9.500 49.152 6.750 L 49 4 47.750 4 L 46.500 4 46.500 6.500 M 54 8.500 L 54 9 54.500 9 L 55 9 55 8.500 L 55 8 54.500 8 L 54 8 54 8.500 M 52 10.500 L 52 11 52.500 11 L 53 11 53 10.500 L 53 10 52.500 10 L 52 10 52 10.500 M 56 12.500 L 56 13 56.500 13 L 57 13 57 12.500 L 57 12 56.500 12 L 56 12 56 12.500 M 53 14.500 L 53 15 53.500 15 L 54 15 54 14.500 L 54 14 53.500 14 L 53 14 53 14.500 M 54 20.500 L 54 21 54.500 21 L 55 21 55 20.500 L 55 20 54.500 20 L 54 20 54 20.500 M 55.500 24 L 56.118 25 56.618 25 L 57.118 25 56.500 24 L 55.882 23 55.382 23 L 54.882 23 55.500 24 M 59 23.500 L 59 24 59.500 24 L 60 24 60 23.500 L 60 23 59.500 23 L 59 23 59 23.500 M 61 30.500 L 61 31 61.500 31 L 62 31 62 30.500 L 62 30 61.500 30 L 61 30 61 30.500 M 59 32.500 L 59 33 59.500 33 L 60 33 60 32.500 L 60 32 59.500 32 L 59 32 59 32.500 M 5 42.500 L 5 43 5.500 43 L 6 43 6 42.500 L 6 42 5.500 42 L 5 42 5 42.500 M 3 44.500 L 3 45 3.500 45 L 4 45 4 44.500 L 4 44 3.500 44 L 3 44 3 44.500 M 11.405 45.155 L 10.691 46.309 11.845 45.595 L 13 44.882 13 44.441 L 13 44 12.559 44 L 12.118 44 11.405 45.155 M 7 45.500 L 7 46 7.500 46 L 8 46 8 45.500 L 8 45 7.500 45 L 7 45 7 45.500 M 9 46.500 L 9 47 9.500 47 L 10 47 10 46.500 L 10 46 9.500 46 L 9 46 9 46.500 M 23 47.500 L 23 48 23.500 48 L 24 48 24 47.500 L 24 47 23.500 47 L 23 47 23 47.500 M 3 48.893 L 3 49.786 4.643 50.417 L 6.286 51.047 6.864 50.469 L 7.442 49.891 5.971 48.961 L 4.500 48.031 3.750 48.015 L 3 48 3 48.893 M 9 48.500 L 9 49 9.500 49 L 10 49 10 48.500 L 10 48 9.500 48 L 9 48 9 48.500 M 19 48.500 L 19 49 19.500 49 L 20 49 20 48.500 L 20 48 19.500 48 L 19 48 19 48.500 M 33 51 L 33 52.333 33.667 51.667 L 34.333 51 33.667 50.333 L 33 49.667 33 51 M 20 51.500 L 20 52 20.500 52 L 21 52 21 51.500 L 21 51 20.500 51 L 20 51 20 51.500 M 24 52 L 24 53.333 24.667 52.667 L 25.333 52 24.667 51.333 L 24 50.667 24 52 M 16.333 53.667 L 17 54.333 17.667 53.667 L 18.333 53 17 53 L 15.667 53 16.333 53.667 M 20.333 54.667 L 21 55.333 21.667 54.667 L 22.333 54 21 54 L 19.667 54 20.333 54.667 M 25.559 54.967 L 23.619 55.660 27.862 56.737 L 32.105 57.814 31.751 56.752 L 31.397 55.691 29.449 54.983 L 27.500 54.274 25.559 54.967" stroke="none" fill="#c42c37" fill-rule="evenodd"/><path d="M 51 2.500 L 51 3 51.500 3 L 52 3 52 2.500 L 52 2 51.500 2 L 51 2 51 2.500 M 47.333 3.667 L 48 4.333 48.667 3.667 L 49.333 3 48 3 L 46.667 3 47.333 3.667 M 54 4.500 L 54 5 54.500 5 L 55 5 55 4.500 L 55 4 54.500 4 L 54 4 54 4.500 M 46 5.500 L 46 6 46.500 6 L 47 6 47 5.500 L 47 5 46.500 5 L 46 5 46 5.500 M 55 8 L 55 9.333 55.667 8.667 L 56.333 8 55.667 7.333 L 55 6.667 55 8 M 49 8.500 L 49 9 49.500 9 L 50 9 50 8.500 L 50 8 49.500 8 L 49 8 49 8.500 M 47 9.500 L 47 10 47.500 10 L 48 10 48 9.500 L 48 9 47.500 9 L 47 9 47 9.500 M 49.405 11.155 L 48.691 12.309 49.845 11.595 L 51 10.882 51 10.441 L 51 10 50.559 10 L 50.118 10 49.405 11.155 M 55 11.559 L 55 13.118 56.016 12.490 L 57.033 11.862 56.457 10.931 L 55.882 10 55.441 10 L 55 10 55 11.559 M 48 13.500 L 48 14 48.500 14 L 49 14 49 13.500 L 49 13 48.500 13 L 48 13 48 13.500 M 49.564 15.707 L 48.882 17.500 50.124 16.267 L 51.367 15.033 50.807 14.474 L 50.247 13.914 49.564 15.707 M 56.333 15.456 L 56.333 16.912 57.183 16.387 L 58.033 15.862 57.457 14.931 L 56.882 14 56.608 14 L 56.333 14 56.333 15.456 M 53 16.500 L 53 17 53.500 17 L 54 17 54 16.500 L 54 16 53.500 16 L 53 16 53 16.500 M 51 17.500 L 51 18 51.500 18 L 52 18 52 17.500 L 52 17 51.500 17 L 51 17 51 17.500 M 57.500 19 L 58.118 20 58.559 20 L 59 20 59 19 L 59 18 57.941 18 L 56.882 18 57.500 19 M 52 19.500 L 52 20 52.500 20 L 53 20 53 19.500 L 53 19 52.500 19 L 52 19 52 19.500 M 55 20 L 55 21.333 55.667 20.667 L 56.333 20 55.667 19.333 L 55 18.667 55 20 M 50 20.500 L 50 21 50.500 21 L 51 21 51 20.500 L 51 20 50.500 20 L 50 20 50 20.500 M 58.333 22.667 L 59 23.333 59.667 22.667 L 60.333 22 59 22 L 57.667 22 58.333 22.667 M 51 24 L 51 25.333 51.667 24.667 L 52.333 24 51.667 23.333 L 51 22.667 51 24 M 56 23.500 L 56 24 56.500 24 L 57 24 57 23.500 L 57 23 56.500 23 L 56 23 56 23.500 M 54.405 26.155 L 53.691 27.309 54.845 26.595 L 56 25.882 56 25.441 L 56 25 55.559 25 L 55.118 25 54.405 26.155 M 60 26.500 L 60 27 60.500 27 L 61 27 61 26.500 L 61 26 60.500 26 L 60 26 60 26.500 M 52 27.500 L 52 28 52.500 28 L 53 28 53 27.500 L 53 27 52.500 27 L 52 27 52 27.500 M 56 27.500 L 56 28 56.500 28 L 57 28 57 27.500 L 57 27 56.500 27 L 56 27 56 27.500 M 61 29.500 L 61 30 61.500 30 L 62 30 62 29.500 L 62 29 61.500 29 L 61 29 61 29.500 M 53 31.500 L 53 32 53.500 32 L 54 32 54 31.500 L 54 31 53.500 31 L 53 31 53 31.500 M 60 32.500 L 60 33 60.500 33 L 61 33 61 32.500 L 61 32 60.500 32 L 60 32 60 32.500 M 54.813 33.683 L 56.125 34.208 56.729 33.604 L 57.333 33 55.417 33.079 L 53.500 33.158 54.813 33.683 M 6 42.500 L 6 43 6.500 43 L 7 43 7 42.500 L 7 42 6.500 42 L 6 42 6 42.500 M 3 43.500 L 3 44 3.500 44 L 4 44 4 43.500 L 4 43 3.500 43 L 3 43 3 43.500 M 9 43.500 L 9 44 9.500 44 L 10 44 10 43.500 L 10 43 9.500 43 L 9 43 9 43.500 M 13 44.500 L 13 45 13.500 45 L 14 45 14 44.500 L 14 44 13.500 44 L 13 44 13 44.500 M 14.500 46 L 12.500 46.859 14 46.914 L 15.500 46.969 17 46 L 18.500 45.031 17.500 45.086 L 16.500 45.141 14.500 46 M 10 46.941 L 10 47.882 10.989 48.493 L 11.977 49.104 11.382 47.552 L 10.786 46 10.393 46 L 10 46 10 46.941 M 20 46.500 L 20 47 20.500 47 L 21 47 21 46.500 L 21 46 20.500 46 L 20 46 20 46.500 M 2.079 48.583 L 2.158 50.500 2.683 49.188 L 3.208 47.875 2.604 47.271 L 2 46.667 2.079 48.583 M 17.333 47.667 L 18 48.333 18.667 47.667 L 19.333 47 18 47 L 16.667 47 17.333 47.667 M 24 47.500 L 24 48 24.500 48 L 25 48 25 47.500 L 25 47 24.500 47 L 24 47 24 47.500 M 15 48.500 L 15 49 15.500 49 L 16 49 16 48.500 L 16 48 15.500 48 L 15 48 15 48.500 M 20 48.500 L 20 49 20.500 49 L 21 49 21 48.500 L 21 48 20.500 48 L 20 48 20 48.500 M 22 48.500 L 22 49 22.500 49 L 23 49 23 48.500 L 23 48 22.500 48 L 22 48 22 48.500 M 27.333 48.667 L 28 49.333 28.667 48.667 L 29.333 48 28 48 L 26.667 48 27.333 48.667 M 31 49.500 L 31 50 31.500 50 L 32 50 32 49.500 L 32 49 31.500 49 L 31 49 31 49.500 M 4 50.500 L 4 51 4.500 51 L 5 51 5 50.500 L 5 50 4.500 50 L 4 50 4 50.500 M 7.733 51.124 L 8.967 52.367 9.526 51.807 L 10.086 51.247 8.293 50.564 L 6.500 49.882 7.733 51.124 M 25.333 51.651 L 25.333 52.968 26.667 51.862 L 28 50.755 28 50.544 L 28 50.333 26.667 50.333 L 25.333 50.333 25.333 51.651 M 11 52.031 L 11 53 12.500 53 L 14 53 14 52.607 L 14 52.214 12.500 51.638 L 11 51.063 11 52.031 M 19 51.500 L 19 52 19.500 52 L 20 52 20 51.500 L 20 51 19.500 51 L 19 51 19 51.500 M 15.405 53.155 L 14.691 54.309 15.845 53.595 L 17 52.882 17 52.441 L 17 52 16.559 52 L 16.118 52 15.405 53.155 M 28 52.500 L 28 53 28.500 53 L 29 53 29 52.500 L 29 52 28.500 52 L 28 52 28 52.500 M 33 52.500 L 33 53 33.500 53 L 34 53 34 52.500 L 34 52 33.500 52 L 33 52 33 52.500 M 18.500 54 L 19.118 55 19.618 55 L 20.118 55 19.500 54 L 18.882 53 18.382 53 L 17.882 53 18.500 54 M 22 55 L 22 56 23.059 56 L 24.118 56 23.500 55 L 22.882 54 22.441 54 L 22 54 22 55 M 32 56 L 32 57.333 32.667 56.667 L 33.333 56 32.667 55.333 L 32 54.667 32 56 M 26 56.500 L 26 57 26.500 57 L 27 57 27 56.500 L 27 56 26.500 56 L 26 56 26 56.500 M 30 57.500 L 30 58 30.500 58 L 31 58 31 57.500 L 31 57 30.500 57 L 30 57 30 57.500" stroke="none" fill="#b62933" fill-rule="evenodd"/><path d="M 45 2 L 40.500 3.888 37.809 3.944 L 35.118 4 34.500 5 L 33.882 6 31.500 6 L 29.118 6 28.462 7.062 L 27.806 8.123 25.653 9.105 L 23.500 10.086 21.500 11.305 L 19.500 12.524 16.659 14.437 L 13.818 16.350 12.911 18.425 L 12.005 20.500 11.118 22 L 10.232 23.500 8.982 26.500 L 7.732 29.500 6.866 31.750 L 6 34 4.750 36.750 L 3.500 39.500 2.289 40.782 L 1.079 42.064 0.512 45.282 L -0.055 48.500 0.736 52.916 L 1.527 57.332 14.013 60.606 L 26.500 63.881 28.344 63.940 L 30.187 64 30.710 62 L 31.233 60 32.519 60 L 33.804 60 34.902 56.851 L 36 53.702 36 51.551 L 36 49.400 34.932 48.332 L 33.863 47.263 35.479 43.395 L 37.095 39.527 39.198 37.289 L 41.301 35.050 45.699 33.371 L 50.096 31.692 51.605 33.846 L 53.113 36 55.407 36 L 57.702 36 60.851 34.902 L 64 33.804 64 31.695 L 64 29.585 60.358 16.042 L 56.715 2.500 55.735 1.250 L 54.755 0 52.128 0.056 L 49.500 0.112 45 2 M 47.750 2.689 L 46 3.147 45.884 5.823 L 45.768 8.500 45.311 6.750 L 44.853 5 42.927 5 L 41 5 41 6.178 L 41 7.356 44.534 18.678 L 48.069 30 49.534 30 L 51 30 51 29.247 L 51 28.494 49.065 21.728 L 47.130 14.963 47.925 15.454 L 48.720 15.945 51.048 24.973 L 53.375 34 55.437 33.986 L 57.500 33.973 59.750 33.370 L 62 32.767 62 31.222 L 62 29.678 58.280 15.839 L 54.561 2 52.030 2.116 L 49.500 2.232 47.750 2.689 M 35.558 6.905 L 34.999 7.811 38.022 14.549 L 41.045 21.288 40.667 21.667 L 40.288 22.045 37.148 15.023 L 34.008 8 32.063 8 L 30.118 8 29.463 9.061 L 28.807 10.121 36.040 21.061 L 43.273 32 43.887 31.985 L 44.500 31.969 45.818 31.134 L 47.136 30.298 43.382 18.149 L 39.629 6 37.873 6 L 36.118 6 35.558 6.905 M 51 8.965 L 51 10 52.583 10 L 54.167 10 53.708 11.250 L 53.250 12.500 52.125 12.250 L 51 12 51 13.406 L 51 14.813 53 14.290 L 55 13.767 55 14.555 L 55 15.343 53.436 17.071 L 51.872 18.799 53.686 18.650 L 55.500 18.500 55.500 20 L 55.500 21.500 54.286 21.262 L 53.072 21.024 53.619 22.449 L 54.166 23.874 55.583 23.330 L 57 22.786 57 24.310 L 57 25.833 55.750 26.338 L 54.500 26.842 55.691 26.921 L 56.882 27 57.519 25.969 L 58.156 24.938 56.378 17.398 L 54.600 9.857 52.800 8.893 L 51 7.930 51 8.965 M 46 11 L 46 12.333 46.667 11.667 L 47.333 11 46.667 10.333 L 46 9.667 46 11 M 24.500 12 L 23.882 13 24.366 13.784 L 24.851 14.567 22.273 14.534 L 19.695 14.500 19.328 15.558 L 18.961 16.616 29.028 25.927 L 39.095 35.239 39.692 34.641 L 40.290 34.043 37.895 31.080 L 35.500 28.117 31.126 22.809 L 26.752 17.500 30.626 21.511 L 34.500 25.522 37.812 29.366 L 41.123 33.210 41.642 32.691 L 42.161 32.173 35.058 21.586 L 27.955 11 26.537 11 L 25.118 11 24.500 12 M 15.028 19.250 L 15.056 21.500 22.616 27 L 30.177 32.500 30.800 33.500 L 31.424 34.500 26.462 30.769 L 21.500 27.038 17.712 24.357 L 13.924 21.676 12.829 22.771 L 11.734 23.866 12.273 25.270 L 12.812 26.675 23.225 32.837 L 33.638 39 34.974 39 L 36.310 39 34.405 36.767 L 32.500 34.534 34.292 35.925 L 36.085 37.315 37.006 36.394 L 37.928 35.472 28.040 26.236 L 18.152 17 16.576 17 L 15 17 15.028 19.250 M 42 25.500 L 42 26 42.500 26 L 43 26 43 25.500 L 43 25 42.500 25 L 42 25 42 25.500 M 10.017 28.750 L 10.033 30.500 21.267 36.295 L 32.500 42.090 33.250 42.045 L 34 42 34 41.131 L 34 40.261 22.922 33.631 L 11.843 27 10.922 27 L 10 27 10.017 28.750 M 44 30 L 44 31.333 44.667 30.667 L 45.333 30 44.667 29.333 L 44 28.667 44 30 M 8.667 32.667 L 8 33.333 8 35.083 L 8 36.833 9.250 37.338 L 10.500 37.842 8.250 37.921 L 6 38 6 39.392 L 6 40.783 8.250 41.376 L 10.500 41.968 21.250 44.904 L 32 47.840 32 47.013 L 32 46.186 23.750 43.146 L 15.500 40.106 16.693 40.053 L 17.886 40 24.980 42.630 L 32.074 45.259 32.704 44.630 L 33.333 44 32.917 43.647 L 32.500 43.295 21.895 37.647 L 11.290 32 10.312 32 L 9.333 32 8.667 32.667 M 13 38.500 L 13 39 13.500 39 L 14 39 14 38.500 L 14 38 13.500 38 L 13 38 13 38.500 M 2.630 44.250 L 2.027 46.500 2.014 48.530 L 2 50.561 15.839 54.280 L 29.678 58 31.222 58 L 32.767 58 33.370 55.750 L 33.973 53.500 33.986 51.470 L 34 49.439 20.161 45.720 L 6.322 42 4.778 42 L 3.233 42 2.630 44.250 M 11.743 48.127 L 12.233 50 10.690 50 L 9.147 50 8.727 48.750 L 8.307 47.500 8.417 48.999 L 8.527 50.497 16.960 52.280 L 25.394 54.063 26.697 53.563 L 28 53.063 27.921 51.781 L 27.842 50.500 27.338 51.750 L 26.833 53 24.917 53 L 23 53 23 52 L 23 51 24.250 50.985 L 25.500 50.969 24 50 L 22.500 49.031 21.781 49.015 L 21.063 49 21.677 50.601 L 22.292 52.203 20.396 51.813 L 18.500 51.423 18.650 49.648 L 18.799 47.872 17.071 49.436 L 15.343 51 14.171 51 L 13 51 13 49.583 L 13 48.167 14.224 47.759 L 15.448 47.351 13.351 46.802 L 11.254 46.254 11.743 48.127 M 3 54 L 3 56 4 56 L 5 56 5 54 L 5 52 4 52 L 3 52 3 54 M 6 55 L 6 57 7 57 L 8 57 8 55 L 8 53 7 53 L 6 53 6 55 M 9 55.500 L 9 57 10 57 L 11 57 11 55.500 L 11 54 10 54 L 9 54 9 55.500 M 12 56.500 L 12 58 13 58 L 14 58 14 56.500 L 14 55 13 55 L 12 55 12 56.500 M 15 56.941 L 15 59 16 59 L 17 59 17 57.559 L 17 56.118 16 55.500 L 15 54.882 15 56.941 M 18 58 L 18 60 19 60 L 20 60 20 58 L 20 56 19 56 L 18 56 18 58 M 21 59 L 21 61 22 61 L 23 61 23 59 L 23 57 22 57 L 21 57 21 59 M 24 59.500 L 24 61 25 61 L 26 61 26 59.500 L 26 58 25 58 L 24 58 24 59.500 M 27 60.500 L 27 62 28 62 L 29 62 29 60.500 L 29 59 28 59 L 27 59 27 60.500" stroke="none" fill="#000000" fill-rule="evenodd"/><path d="M 50 2.500 L 50 3 50.500 3 L 51 3 51 2.500 L 51 2 50.500 2 L 50 2 50 2.500 M 46 3.500 L 46 4 46.500 4 L 47 4 47 3.500 L 47 3 46.500 3 L 46 3 46 3.500 M 54 3.500 L 54 4 54.500 4 L 55 4 55 3.500 L 55 3 54.500 3 L 54 3 54 3.500 M 46 7 L 46 8.333 46.667 7.667 L 47.333 7 46.667 6.333 L 46 5.667 46 7 M 55 6.500 L 55 7 55.500 7 L 56 7 56 6.500 L 56 6 55.500 6 L 55 6 55 6.500 M 53 8.500 L 53 9 53.500 9 L 54 9 54 8.500 L 54 8 53.500 8 L 53 8 53 8.500 M 47 11 L 47 12.333 47.667 11.667 L 48.333 11 47.667 10.333 L 47 9.667 47 11 M 53 10.802 L 53 11.937 51.250 11.374 L 49.500 10.811 50.992 11.864 L 52.483 12.917 53.425 11.975 L 54.367 11.033 53.683 10.350 L 53 9.667 53 10.802 M 56 10.500 L 56 11 56.500 11 L 57 11 57 10.500 L 57 10 56.500 10 L 56 10 56 10.500 M 50 13.500 L 50 14 50.500 14 L 51 14 51 13.500 L 51 13 50.500 13 L 50 13 50 13.500 M 48 14.500 L 48 15 48.500 15 L 49 15 49 14.500 L 49 14 48.500 14 L 48 14 48 14.500 M 52 15 L 52 16.333 52.667 15.667 L 53.333 15 52.667 14.333 L 52 13.667 52 15 M 54 15 L 54 16.333 54.667 15.667 L 55.333 15 54.667 14.333 L 54 13.667 54 15 M 56.405 15.155 L 55.691 16.309 56.845 15.595 L 58 14.882 58 14.441 L 58 14 57.559 14 L 57.118 14 56.405 15.155 M 49 18 L 49 19.333 49.667 18.667 L 50.333 18 49.667 17.333 L 49 16.667 49 18 M 56 17.500 L 56 18 56.500 18 L 57 18 57 17.500 L 57 17 56.500 17 L 56 17 56 17.500 M 58 17.500 L 58 18 58.500 18 L 59 18 59 17.500 L 59 17 58.500 17 L 58 17 58 17.500 M 51 18.500 L 51 19 51.500 19 L 52 19 52 18.500 L 52 18 51.500 18 L 51 18 51 18.500 M 57 19.500 L 57 20 57.500 20 L 58 20 58 19.500 L 58 19 57.500 19 L 57 19 57 19.500 M 52 21.059 L 52 22.118 53 21.500 L 54 20.882 54 20.441 L 54 20 53 20 L 52 20 52 21.059 M 50 21.500 L 50 22 50.500 22 L 51 22 51 21.500 L 51 21 50.500 21 L 50 21 50 21.500 M 59 21.500 L 59 22 59.500 22 L 60 22 60 21.500 L 60 21 59.500 21 L 59 21 59 21.500 M 53.333 24.667 L 54 25.333 54.667 24.667 L 55.333 24 54 24 L 52.667 24 53.333 24.667 M 51 25.500 L 51 26 51.500 26 L 52 26 52 25.500 L 52 25 51.500 25 L 51 25 51 25.500 M 57.405 26.155 L 56.691 27.309 57.845 26.595 L 59 25.882 59 25.441 L 59 25 58.559 25 L 58.118 25 57.405 26.155 M 60 25.500 L 60 26 60.500 26 L 61 26 61 25.500 L 61 25 60.500 25 L 60 25 60 25.500 M 55 27.500 L 55 28 55.500 28 L 56 28 56 27.500 L 56 27 55.500 27 L 55 27 55 27.500 M 52 29 L 52 30.333 52.667 29.667 L 53.333 29 52.667 28.333 L 52 27.667 52 29 M 61 28.500 L 61 29 61.500 29 L 62 29 62 28.500 L 62 28 61.500 28 L 61 28 61 28.500 M 53 32.500 L 53 33 53.500 33 L 54 33 54 32.500 L 54 32 53.500 32 L 53 32 53 32.500 M 61 32.500 L 61 33 61.500 33 L 62 33 62 32.500 L 62 32 61.500 32 L 61 32 61 32.500 M 57 33.500 L 57 34 57.500 34 L 58 34 58 33.500 L 58 33 57.500 33 L 57 33 57 33.500 M 3 42.500 L 3 43 3.500 43 L 4 43 4 42.500 L 4 42 3.500 42 L 3 42 3 42.500 M 7 42.500 L 7 43 7.500 43 L 8 43 8 42.500 L 8 42 7.500 42 L 7 42 7 42.500 M 10 43.500 L 10 44 10.500 44 L 11 44 11 43.500 L 11 43 10.500 43 L 10 43 10 43.500 M 14 44.500 L 14 45 14.500 45 L 15 45 15 44.500 L 15 44 14.500 44 L 14 44 14 44.500 M 18 45.500 L 18 46 18.500 46 L 19 46 19 45.500 L 19 45 18.500 45 L 18 45 18 45.500 M 2 46.500 L 2 47 2.500 47 L 3 47 3 46.500 L 3 46 2.500 46 L 2 46 2 46.500 M 12 46.500 L 12 47 12.500 47 L 13 47 13 46.500 L 13 46 12.500 46 L 12 46 12 46.500 M 21 46.500 L 21 47 21.500 47 L 22 47 22 46.500 L 22 46 21.500 46 L 21 46 21 46.500 M 14.074 48.411 L 12.903 49.822 14.039 50.524 L 15.174 51.226 16.337 50.054 L 17.500 48.882 15.500 49.628 L 13.500 50.374 14.872 48.687 L 16.245 47 15.745 47 L 15.245 47 14.074 48.411 M 25 47.500 L 25 48 25.500 48 L 26 48 26 47.500 L 26 47 25.500 47 L 25 47 25 47.500 M 20.625 48.798 L 20.132 49.595 21.022 51.035 L 21.911 52.475 21.743 50.237 L 21.574 48 21.346 48 L 21.118 48 20.625 48.798 M 29 48.500 L 29 49 29.500 49 L 30 49 30 48.500 L 30 48 29.500 48 L 29 48 29 48.500 M 7 49.500 L 7 50 7.500 50 L 8 50 8 49.500 L 8 49 7.500 49 L 7 49 7 49.500 M 10 49.500 L 10 50 10.500 50 L 11 50 11 49.500 L 11 49 10.500 49 L 10 49 10 49.500 M 25 49.500 L 25 50 25.500 50 L 26 50 26 49.500 L 26 49 25.500 49 L 25 49 25 49.500 M 32 49.500 L 32 50 32.500 50 L 33 50 33 49.500 L 33 49 32.500 49 L 32 49 32 49.500 M 3 50.500 L 3 51 3.500 51 L 4 51 4 50.500 L 4 50 3.500 50 L 3 50 3 50.500 M 6.333 51.667 L 7 52.333 7.667 51.667 L 8.333 51 7 51 L 5.667 51 6.333 51.667 M 10 52 L 10 53.333 10.667 52.667 L 11.333 52 10.667 51.333 L 10 50.667 10 52 M 12 51.500 L 12 52 12.500 52 L 13 52 13 51.500 L 13 51 12.500 51 L 12 51 12 51.500 M 23 52 L 23 53.333 23.667 52.667 L 24.333 52 23.667 51.333 L 23 50.667 23 52 M 28 51.500 L 28 52 28.500 52 L 29 52 29 51.500 L 29 51 28.500 51 L 28 51 28 51.500 M 14 53.059 L 14 54.118 15 53.500 L 16 52.882 16 52.441 L 16 52 15 52 L 14 52 14 53.059 M 17 52.500 L 17 53 17.500 53 L 18 53 18 52.500 L 18 52 17.500 52 L 17 52 17 52.500 M 18 54 L 16.500 54.969 17.691 54.985 L 18.882 55 19.500 54 L 20.118 53 19.809 53.015 L 19.500 53.031 18 54 M 21 53.500 L 21 54 21.500 54 L 22 54 22 53.500 L 22 53 21.500 53 L 21 53 21 53.500 M 26.405 54.155 L 25.691 55.309 26.845 54.595 L 28 53.882 28 53.441 L 28 53 27.559 53 L 27.118 53 26.405 54.155 M 33 53.500 L 33 54 33.500 54 L 34 54 34 53.500 L 34 53 33.500 53 L 33 53 33 53.500 M 23 54.500 L 23 55 23.500 55 L 24 55 24 54.500 L 24 54 23.500 54 L 23 54 23 54.500 M 21 55.500 L 21 56 21.500 56 L 22 56 22 55.500 L 22 55 21.500 55 L 21 55 21 55.500 M 25 56.500 L 25 57 25.500 57 L 26 57 26 56.500 L 26 56 25.500 56 L 25 56 25 56.500 M 28.333 57.667 L 29 58.333 29.667 57.667 L 30.333 57 29 57 L 27.667 57 28.333 57.667 M 32 57.500 L 32 58 32.500 58 L 33 58 33 57.500 L 33 57 32.500 57 L 32 57 32 57.500" stroke="none" fill="#350c0f" fill-rule="evenodd"/><path d="" stroke="none" fill="#fe898d" fill-rule="evenodd"/><path d="M 39 7.500 L 39 8 39.500 8 L 40 8 40 7.500 L 40 7 39.500 7 L 39 7 39 7.500 M 36 10.500 L 36 11 36.500 11 L 37 11 37 10.500 L 37 10 36.500 10 L 36 10 36 10.500 M 40 10.500 L 40 11 40.500 11 L 41 11 41 10.500 L 41 10 40.500 10 L 40 10 40 10.500 M 42 11.500 L 42 12 42.500 12 L 43 12 43 11.500 L 43 11 42.500 11 L 42 11 42 11.500 M 37 12.500 L 37 13 37.500 13 L 38 13 38 12.500 L 38 12 37.500 12 L 37 12 37 12.500 M 24.500 14 L 25.118 15 25.618 15 L 26.118 15 25.500 14 L 24.882 13 24.382 13 L 23.882 13 24.500 14 M 41 13.500 L 41 14 41.500 14 L 42 14 42 13.500 L 42 13 41.500 13 L 41 13 41 13.500 M 43 14.500 L 43 15 43.500 15 L 44 15 44 14.500 L 44 14 43.500 14 L 43 14 43 14.500 M 37 16.500 L 37 17 37.500 17 L 38 17 38 16.500 L 38 16 37.500 16 L 37 16 37 16.500 M 42 16.500 L 42 17 42.500 17 L 43 17 43 16.500 L 43 16 42.500 16 L 42 16 42 16.500 M 27 17.500 L 27 18 27.500 18 L 28 18 28 17.500 L 28 17 27.500 17 L 27 17 27 17.500 M 44 17.500 L 44 18 44.500 18 L 45 18 45 17.500 L 45 17 44.500 17 L 44 17 44 17.500 M 15 18.500 L 15 19 15.500 19 L 16 19 16 18.500 L 16 18 15.500 18 L 15 18 15 18.500 M 38 18.500 L 38 19 38.500 19 L 39 19 39 18.500 L 39 18 38.500 18 L 38 18 38 18.500 M 27 19.500 L 27 20 27.500 20 L 28 20 28 19.500 L 28 19 27.500 19 L 27 19 27 19.500 M 43 19.500 L 43 20 43.500 20 L 44 20 44 19.500 L 44 19 43.500 19 L 43 19 43 19.500 M 22.500 22 L 24.310 24 24.810 24 L 25.310 24 23.500 22 L 21.690 20 21.190 20 L 20.690 20 22.500 22 M 48 20.500 L 48 21 48.500 21 L 49 21 49 20.500 L 49 20 48.500 20 L 48 20 48 20.500 M 31 21.500 L 31 22 31.500 22 L 32 22 32 21.500 L 32 21 31.500 21 L 31 21 31 21.500 M 17 22.500 L 17 23 17.500 23 L 18 23 18 22.500 L 18 22 17.500 22 L 17 22 17 22.500 M 49 24.500 L 49 25 49.500 25 L 50 25 50 24.500 L 50 24 49.500 24 L 49 24 49 24.500 M 21 25.500 L 21 26 21.500 26 L 22 26 22 25.500 L 22 25 21.500 25 L 21 25 21 25.500 M 42.405 26.155 L 41.691 27.309 42.845 26.595 L 44 25.882 44 25.441 L 44 25 43.559 25 L 43.118 25 42.405 26.155 M 34 27.500 L 34 28 34.500 28 L 35 28 35 27.500 L 35 27 34.500 27 L 34 27 34 27.500 M 13 28.500 L 13 29 13.500 29 L 14 29 14 28.500 L 14 28 13.500 28 L 13 28 13 28.500 M 25 28.500 L 25 29 25.500 29 L 26 29 26 28.500 L 26 28 25.500 28 L 25 28 25 28.500 M 37 28.500 L 37 29 37.500 29 L 38 29 38 28.500 L 38 28 37.500 28 L 37 28 37 28.500 M 43 29.500 L 43 30 43.500 30 L 44 30 44 29.500 L 44 29 43.500 29 L 43 29 43 29.500 M 50 29.500 L 50 30 50.500 30 L 51 30 51 29.500 L 51 29 50.500 29 L 50 29 50 29.500 M 46 30.500 L 46 31 46.500 31 L 47 31 47 30.500 L 47 30 46.500 30 L 46 30 46 30.500 M 18 31.500 L 18 32 18.500 32 L 19 32 19 31.500 L 19 31 18.500 31 L 18 31 18 31.500 M 29 31.500 L 29 32 29.500 32 L 30 32 30 31.500 L 30 31 29.500 31 L 29 31 29 31.500 M 41 32.500 L 41 33 41.500 33 L 42 33 42 32.500 L 42 32 41.500 32 L 41 32 41 32.500 M 16 33.500 L 16 34 16.500 34 L 17 34 17 33.500 L 17 33 16.500 33 L 16 33 16 33.500 M 31 33.500 L 31 34 31.500 34 L 32 34 32 33.500 L 32 33 31.500 33 L 31 33 31 33.500 M 37 33.500 L 37 34 37.500 34 L 38 34 38 33.500 L 38 33 37.500 33 L 37 33 37 33.500 M 39 33.500 L 39 34 39.500 34 L 40 34 40 33.500 L 40 33 39.500 33 L 39 33 39 33.500 M 18 34.500 L 18 35 18.500 35 L 19 35 19 34.500 L 19 34 18.500 34 L 18 34 18 34.500 M 23 34.500 L 23 35 23.500 35 L 24 35 24 34.500 L 24 34 23.500 34 L 23 34 23 34.500 M 20 35.500 L 20 36 20.500 36 L 21 36 21 35.500 L 21 35 20.500 35 L 20 35 20 35.500 M 22 36.500 L 22 37 22.500 37 L 23 37 23 36.500 L 23 36 22.500 36 L 22 36 22 36.500 M 36 36.500 L 36 37 36.500 37 L 37 37 37 36.500 L 37 36 36.500 36 L 36 36 36 36.500 M 28 37.500 L 28 38 28.500 38 L 29 38 29 37.500 L 29 37 28.500 37 L 28 37 28 37.500 M 6 38.500 L 6 39 6.500 39 L 7 39 7 38.500 L 7 38 6.500 38 L 6 38 6 38.500 M 12 39.500 L 12 40 12.500 40 L 13 40 13 39.500 L 13 39 12.500 39 L 12 39 12 39.500 M 16 39.500 L 16 40 16.500 40 L 17 40 17 39.500 L 17 39 16.500 39 L 16 39 16 39.500 M 24 39.500 L 24 40 24.500 40 L 25 40 25 39.500 L 25 39 24.500 39 L 24 39 24 39.500 M 26 40.500 L 26 41 26.500 41 L 27 41 27 40.500 L 27 40 26.500 40 L 26 40 26 40.500 M 33 40.500 L 33 41 33.500 41 L 34 41 34 40.500 L 34 40 33.500 40 L 33 40 33 40.500 M 28 41.500 L 28 42 28.500 42 L 29 42 29 41.500 L 29 41 28.500 41 L 28 41 28 41.500 M 13 42.500 L 13 43 13.500 43 L 14 43 14 42.500 L 14 42 13.500 42 L 13 42 13 42.500 M 20 42.500 L 20 43 20.500 43 L 21 43 21 42.500 L 21 42 20.500 42 L 20 42 20 42.500 M 25 42.500 L 25 43 25.500 43 L 26 43 26 42.500 L 26 42 25.500 42 L 25 42 25 42.500 M 30 42.500 L 30 43 30.500 43 L 31 43 31 42.500 L 31 42 30.500 42 L 30 42 30 42.500 M 23 43.500 L 23 44 23.500 44 L 24 44 24 43.500 L 24 43 23.500 43 L 23 43 23 43.500 M 26 44.500 L 26 45 26.500 45 L 27 45 27 44.500 L 27 44 26.500 44 L 26 44 26 44.500 M 32 44.500 L 32 45 32.500 45 L 33 45 33 44.500 L 33 44 32.500 44 L 32 44 32 44.500 M 24 45.500 L 24 46 24.500 46 L 25 46 25 45.500 L 25 45 24.500 45 L 24 45 24 45.500 M 31 47.500 L 31 48 31.500 48 L 32 48 32 47.500 L 32 47 31.500 47 L 31 47 31 47.500 M 3 53.500 L 3 54 3.500 54 L 4 54 4 53.500 L 4 53 3.500 53 L 3 53 3 53.500 M 9.543 54.931 L 8.967 55.862 9.817 56.387 L 10.667 56.912 10.667 55.456 L 10.667 54 10.392 54 L 10.118 54 9.543 54.931 M 3 55.500 L 3 56 3.500 56 L 4 56 4 55.500 L 4 55 3.500 55 L 3 55 3 55.500 M 15 56.500 L 15 57 15.500 57 L 16 57 16 56.500 L 16 56 15.500 56 L 15 56 15 56.500 M 15 58.500 L 15 59 15.500 59 L 16 59 16 58.500 L 16 58 15.500 58 L 15 58 15 58.500 M 21 58.500 L 21 59 21.500 59 L 22 59 22 58.500 L 22 58 21.500 58 L 21 58 21 58.500 M 18 59.500 L 18 60 18.500 60 L 19 60 19 59.500 L 19 59 18.500 59 L 18 59 18 59.500 M 28 59.500 L 28 60 28.500 60 L 29 60 29 59.500 L 29 59 28.500 59 L 28 59 28 59.500 M 27.333 61.667 L 28 62.333 28.667 61.667 L 29.333 61 28 61 L 26.667 61 27.333 61.667" stroke="none" fill="#3a3a3a" fill-rule="evenodd"/><path d="M 50 6 L 50 7 51 7 L 52 7 52 6 L 52 5 51 5 L 50 5 50 6 M 56 30 L 56 31 57 31 L 58 31 58 30 L 58 29 57 29 L 56 29 56 30 M 4 46 L 4 47 5 47 L 6 47 6 46 L 6 45 5 45 L 4 45 4 46 M 30 53 L 30 54 31 54 L 32 54 32 53 L 32 52 31 52 L 30 52 30 53" stroke="none" fill="#ff8d91" fill-rule="evenodd"/><path d="M 54 2.500 L 54 3 54.500 3 L 55 3 55 2.500 L 55 2 54.500 2 L 54 2 54 2.500 M 52 8.500 L 52 9 52.500 9 L 53 9 53 8.500 L 53 8 52.500 8 L 52 8 52 8.500 M 50 9.500 L 50 10 50.500 10 L 51 10 51 9.500 L 51 9 50.500 9 L 50 9 50 9.500 M 54 9.500 L 54 10 54.500 10 L 55 10 55 9.500 L 55 9 54.500 9 L 54 9 54 9.500 M 56 9.500 L 56 10 56.500 10 L 57 10 57 9.500 L 57 9 56.500 9 L 56 9 56 9.500 M 50 12.500 L 50 13 50.500 13 L 51 13 51 12.500 L 51 12 50.500 12 L 50 12 50 12.500 M 55 13.500 L 55 14 55.500 14 L 56 14 56 13.500 L 56 13 55.500 13 L 55 13 55 13.500 M 47.500 15 L 48.118 16 48.618 16 L 49.118 16 48.500 15 L 47.882 14 47.382 14 L 46.882 14 47.500 15 M 42 15.500 L 42 16 42.500 16 L 43 16 43 15.500 L 43 15 42.500 15 L 42 15 42 15.500 M 51 15.500 L 51 16 51.500 16 L 52 16 52 15.500 L 52 15 51.500 15 L 51 15 51 15.500 M 52.733 18.124 L 53.967 19.367 54.526 18.807 L 55.086 18.247 53.293 17.564 L 51.500 16.882 52.733 18.124 M 44 18.500 L 44 19 44.500 19 L 45 19 45 18.500 L 45 18 44.500 18 L 44 18 44 18.500 M 59 20.500 L 59 21 59.500 21 L 60 21 60 20.500 L 60 20 59.500 20 L 59 20 59 20.500 M 15 21.500 L 15 22 15.500 22 L 16 22 16 21.500 L 16 21 15.500 21 L 15 21 15 21.500 M 53.459 22.067 L 52.800 23.133 53.276 23.610 L 53.753 24.086 54.345 22.543 L 54.937 21 54.528 21 L 54.118 21 53.459 22.067 M 26 23.500 L 26 24 26.500 24 L 27 24 27 23.500 L 27 23 26.500 23 L 26 23 26 23.500 M 19 24.500 L 19 25 19.500 25 L 20 25 20 24.500 L 20 24 19.500 24 L 19 24 19 24.500 M 58 24.500 L 58 25 58.500 25 L 59 25 59 24.500 L 59 24 58.500 24 L 58 24 58 24.500 M 56 25.500 L 56 26 56.500 26 L 57 26 57 25.500 L 57 25 56.500 25 L 56 25 56 25.500 M 51 26.500 L 51 27 51.500 27 L 52 27 52 26.500 L 52 26 51.500 26 L 51 26 51 26.500 M 32 30.500 L 32 31 32.500 31 L 33 31 33 30.500 L 33 30 32.500 30 L 32 30 32 30.500 M 37 30.500 L 37 31 37.500 31 L 38 31 38 30.500 L 38 30 37.500 30 L 37 30 37 30.500 M 44 31.500 L 44 32 44.500 32 L 45 32 45 31.500 L 45 31 44.500 31 L 44 31 44 31.500 M 53 33.500 L 53 34 53.500 34 L 54 34 54 33.500 L 54 33 53.500 33 L 53 33 53 33.500 M 21 37.500 L 21 38 21.500 38 L 22 38 22 37.500 L 22 37 21.500 37 L 21 37 21 37.500 M 12 38.500 L 12 39 12.500 39 L 13 39 13 38.500 L 13 38 12.500 38 L 12 38 12 38.500 M 25 38.500 L 25 39 25.500 39 L 26 39 26 38.500 L 26 38 25.500 38 L 25 38 25 38.500 M 15 44.500 L 15 45 15.500 45 L 16 45 16 44.500 L 16 44 15.500 44 L 15 44 15 44.500 M 7.459 47.067 L 6.800 48.133 7.276 48.610 L 7.753 49.086 8.345 47.543 L 8.937 46 8.528 46 L 8.118 46 7.459 47.067 M 11 47.500 L 11 48 11.500 48 L 12 48 12 47.500 L 12 47 11.500 47 L 11 47 11 47.500 M 26 47.500 L 26 48 26.500 48 L 27 48 27 47.500 L 27 47 26.500 47 L 26 47 26 47.500 M 13 48.500 L 13 49 13.500 49 L 14 49 14 48.500 L 14 48 13.500 48 L 13 48 13 48.500 M 17.564 49.293 L 18.247 51.086 18.807 50.526 L 19.367 49.967 18.124 48.733 L 16.882 47.500 17.564 49.293 M 33 49.500 L 33 50 33.500 50 L 34 50 34 49.500 L 34 49 33.500 49 L 33 49 33 49.500 M 2 50.500 L 2 51 2.500 51 L 3 51 3 50.500 L 3 50 2.500 50 L 2 50 2 50.500 M 13 50.500 L 13 51 13.500 51 L 14 51 14 50.500 L 14 50 13.500 50 L 13 50 13 50.500 M 9 52.500 L 9 53 9.500 53 L 10 53 10 52.500 L 10 52 9.500 52 L 9 52 9 52.500 M 26 52.500 L 26 53 26.500 53 L 27 53 27 52.500 L 27 52 26.500 52 L 26 52 26 52.500 M 22 53.500 L 22 54 22.500 54 L 23 54 23 53.500 L 23 53 22.500 53 L 22 53 22 53.500 M 24.333 54.667 L 25 55.333 25.667 54.667 L 26.333 54 25 54 L 23.667 54 24.333 54.667 M 15 55.500 L 15 56 15.500 56 L 16 56 16 55.500 L 16 55 15.500 55 L 15 55 15 55.500 M 20 55.500 L 20 56 20.500 56 L 21 56 21 55.500 L 21 55 20.500 55 L 20 55 20 55.500" stroke="none" fill="#0d0303" fill-rule="evenodd"/><path d="M 50.750 3.706 L 53 4.139 53 6.070 L 53 8 54 8 L 55 8 55 7.082 L 55 6.164 54.393 4.582 L 53.786 3 51.143 3.136 L 48.500 3.272 50.750 3.706 M 49 7.500 L 49 8 49.500 8 L 50 8 50 7.500 L 50 7 49.500 7 L 49 7 49 7.500 M 55 9.500 L 55 10 55.500 10 L 56 10 56 9.500 L 56 9 55.500 9 L 55 9 55 9.500 M 51.500 11 L 52.118 12 52.618 12 L 53.118 12 52.500 11 L 51.882 10 51.382 10 L 50.882 10 51.500 11 M 56 13.500 L 56 14 56.500 14 L 57 14 57 13.500 L 57 13 56.500 13 L 56 13 56 13.500 M 53 15.500 L 53 16 53.500 16 L 54 16 54 15.500 L 54 15 53.500 15 L 53 15 53 15.500 M 57 17 L 57 18.333 57.667 17.667 L 58.333 17 57.667 16.333 L 57 15.667 57 17 M 53.333 19.667 L 54 20.333 54.667 19.667 L 55.333 19 54 19 L 52.667 19 53.333 19.667 M 58 21 L 58 22.333 58.667 21.667 L 59.333 21 58.667 20.333 L 58 19.667 58 21 M 55 24.500 L 55 25 55.500 25 L 56 25 56 24.500 L 56 24 55.500 24 L 55 24 55 24.500 M 58.242 25.960 L 56.983 28 57.992 28 L 59 28 59 30 L 59 32 57.583 32 L 56.167 32 55.662 30.750 L 55.158 29.500 55.079 30.781 L 55 32.063 56.315 32.567 L 57.631 33.072 59.667 32.286 L 61.703 31.500 60.602 27.710 L 59.500 23.920 58.242 25.960 M 4 42.915 L 4 43.767 6.250 44.546 L 8.500 45.326 10 45.557 L 11.500 45.787 13.750 45.894 L 16 46 16 47.500 L 16 49 14.833 49 L 13.667 49 14.415 49.748 L 15.164 50.497 16.398 48.808 L 17.633 47.120 21.872 48.195 L 26.110 49.271 25.566 50.688 L 25.023 52.104 26.261 51.339 L 27.499 50.574 30.499 50.882 L 33.500 51.191 32.889 50.568 L 32.278 49.944 19.389 46.446 L 6.500 42.948 5.250 42.505 L 4 42.063 4 42.915 M 3 47.500 L 3 48 3.500 48 L 4 48 4 47.500 L 4 47 3.500 47 L 3 47 3 47.500 M 9.500 48 L 10.118 49 10.618 49 L 11.118 49 10.500 48 L 9.882 47 9.382 47 L 8.882 47 9.500 48 M 5.333 48.667 L 6 49.333 6.667 48.667 L 7.333 48 6 48 L 4.667 48 5.333 48.667 M 19 50 L 19 51 20.059 51 L 21.118 51 20.500 50 L 19.882 49 19.441 49 L 19 49 19 50 M 28 54 L 28 55.333 28.667 54.667 L 29.333 54 28.667 53.333 L 28 52.667 28 54 M 31 55.500 L 31 56 31.500 56 L 32 56 32 55.500 L 32 55 31.500 55 L 31 55 31 55.500" stroke="none" fill="#ec3643" fill-rule="evenodd"/><path d="M 37 6.500 L 37 7 37.500 7 L 38 7 38 6.500 L 38 6 37.500 6 L 37 6 37 6.500 M 41 7.500 L 41 8 41.500 8 L 42 8 42 7.500 L 42 7 41.500 7 L 41 7 41 7.500 M 44 7.500 L 44 8 44.500 8 L 45 8 45 7.500 L 45 7 44.500 7 L 44 7 44 7.500 M 33 8.500 L 33 9 33.500 9 L 34 9 34 8.500 L 34 8 33.500 8 L 33 8 33 8.500 M 39 8.500 L 39 9 39.500 9 L 40 9 40 8.500 L 40 8 39.500 8 L 39 8 39 8.500 M 29 10 L 29 11.333 29.667 10.667 L 30.333 10 29.667 9.333 L 29 8.667 29 10 M 36 9.500 L 36 10 36.500 10 L 37 10 37 9.500 L 37 9 36.500 9 L 36 9 36 9.500 M 34 10.500 L 34 11 34.500 11 L 35 11 35 10.500 L 35 10 34.500 10 L 34 10 34 10.500 M 42 10.500 L 42 11 42.500 11 L 43 11 43 10.500 L 43 10 42.500 10 L 42 10 42 10.500 M 45 10.500 L 45 11 45.500 11 L 46 11 46 10.500 L 46 10 45.500 10 L 45 10 45 10.500 M 25 11.500 L 25 12 25.500 12 L 26 12 26 11.500 L 26 11 25.500 11 L 25 11 25 11.500 M 27 11.500 L 27 12 27.500 12 L 28 12 28 11.500 L 28 11 27.500 11 L 27 11 27 11.500 M 37 11.500 L 37 12 37.500 12 L 38 12 38 11.500 L 38 11 37.500 11 L 37 11 37 11.500 M 40 11.500 L 40 12 40.500 12 L 41 12 41 11.500 L 41 11 40.500 11 L 40 11 40 11.500 M 31 13.500 L 31 14 31.500 14 L 32 14 32 13.500 L 32 13 31.500 13 L 31 13 31 13.500 M 43 13.500 L 43 14 43.500 14 L 44 14 44 13.500 L 44 13 43.500 13 L 43 13 43 13.500 M 29 14.500 L 29 15 29.500 15 L 30 15 30 14.500 L 30 14 29.500 14 L 29 14 29 14.500 M 41 14.500 L 41 15 41.500 15 L 42 15 42 14.500 L 42 14 41.500 14 L 41 14 41 14.500 M 46 14.500 L 46 15 46.500 15 L 47 15 47 14.500 L 47 14 46.500 14 L 46 14 46 14.500 M 19 15.500 L 19 16 19.500 16 L 20 16 20 15.500 L 20 15 19.500 15 L 19 15 19 15.500 M 33 16.500 L 33 17 33.500 17 L 34 17 34 16.500 L 34 16 33.500 16 L 33 16 33 16.500 M 44 16.500 L 44 17 44.500 17 L 45 17 45 16.500 L 45 16 44.500 16 L 44 16 44 16.500 M 17 17.500 L 17 18 17.500 18 L 18 18 18 17.500 L 18 17 17.500 17 L 17 17 17 17.500 M 28 17.500 L 28 18 28.500 18 L 29 18 29 17.500 L 29 17 28.500 17 L 28 17 28 17.500 M 31 17.500 L 31 18 31.500 18 L 32 18 32 17.500 L 32 17 31.500 17 L 31 17 31 17.500 M 26 18.500 L 26 19 26.500 19 L 27 19 27 18.500 L 27 18 26.500 18 L 26 18 26 18.500 M 40 18.500 L 40 19 40.500 19 L 41 19 41 18.500 L 41 18 40.500 18 L 40 18 40 18.500 M 47 18.500 L 47 19 47.500 19 L 48 19 48 18.500 L 48 18 47.500 18 L 47 18 47 18.500 M 15 19.941 L 15 20.882 15.989 21.493 L 16.977 22.104 16.382 20.552 L 15.786 19 15.393 19 L 15 19 15 19.941 M 35 19.500 L 35 20 35.500 20 L 36 20 36 19.500 L 36 19 35.500 19 L 35 19 35 19.500 M 38 19.500 L 38 20 38.500 20 L 39 20 39 19.500 L 39 19 38.500 19 L 38 19 38 19.500 M 33 20.500 L 33 21 33.500 21 L 34 21 34 20.500 L 34 20 33.500 20 L 33 20 33 20.500 M 41 20.500 L 41 21 41.500 21 L 42 21 42 20.500 L 42 20 41.500 20 L 41 20 41 20.500 M 39 21.500 L 39 22 39.500 22 L 40 22 40 21.500 L 40 21 39.500 21 L 39 21 39 21.500 M 48 21.500 L 48 22 48.500 22 L 49 22 49 21.500 L 49 21 48.500 21 L 48 21 48 21.500 M 37 22.500 L 37 23 37.500 23 L 38 23 38 22.500 L 38 22 37.500 22 L 37 22 37 22.500 M 15 23.500 L 15 24 15.500 24 L 16 24 16 23.500 L 16 23 15.500 23 L 15 23 15 23.500 M 19.500 24 L 20.118 25 20.618 25 L 21.118 25 20.500 24 L 19.882 23 19.382 23 L 18.882 23 19.500 24 M 33 23.544 L 33 23.755 34.333 24.862 L 35.667 25.968 35.667 24.651 L 35.667 23.333 34.333 23.333 L 33 23.333 33 23.544 M 31 24.500 L 31 25 31.500 25 L 32 25 32 24.500 L 32 24 31.500 24 L 31 24 31 24.500 M 30.500 27 L 32.310 29 32.810 29 L 33.310 29 31.500 27 L 29.690 25 29.190 25 L 28.690 25 30.500 27 M 39 25.500 L 39 26 39.500 26 L 40 26 40 25.500 L 40 25 39.500 25 L 39 25 39 25.500 M 41 25.500 L 41 26 41.500 26 L 42 26 42 25.500 L 42 25 41.500 25 L 41 25 41 25.500 M 49 25.500 L 49 26 49.500 26 L 50 26 50 25.500 L 50 25 49.500 25 L 49 25 49 25.500 M 19 26.500 L 19 27 19.500 27 L 20 27 20 26.500 L 20 26 19.500 26 L 19 26 19 26.500 M 23.500 27 L 24.118 28 24.618 28 L 25.118 28 24.500 27 L 23.882 26 23.382 26 L 22.882 26 23.500 27 M 37 26.500 L 37 27 37.500 27 L 38 27 38 26.500 L 38 26 37.500 26 L 37 26 37 26.500 M 43.733 27.124 L 44.967 28.367 45.526 27.807 L 46.086 27.247 44.293 26.564 L 42.500 25.882 43.733 27.124 M 15 27.500 L 15 28 15.500 28 L 16 28 16 27.500 L 16 27 15.500 27 L 15 27 15 27.500 M 10 28.500 L 10 29 10.500 29 L 11 29 11 28.500 L 11 28 10.500 28 L 10 28 10 28.500 M 12 28.500 L 12 29 12.500 29 L 13 29 13 28.500 L 13 28 12.500 28 L 12 28 12 28.500 M 41 28.500 L 41 29 41.500 29 L 42 29 42 28.500 L 42 28 41.500 28 L 41 28 41 28.500 M 14 29.500 L 14 30 14.500 30 L 15 30 15 29.500 L 15 29 14.500 29 L 14 29 14 29.500 M 23 29.500 L 23 30 23.500 30 L 24 30 24 29.500 L 24 29 23.500 29 L 23 29 23 29.500 M 27.500 30 L 28.118 31 28.618 31 L 29.118 31 28.500 30 L 27.882 29 27.382 29 L 26.882 29 27.500 30 M 30.785 30.092 L 31.983 31.684 31.241 32.425 L 30.500 33.167 32 32.833 L 33.500 32.500 33.225 33.824 L 32.950 35.149 33.890 34.568 L 34.829 33.988 35.278 35.244 L 35.726 36.500 36.348 35.932 L 36.970 35.363 33.279 31.932 L 29.587 28.500 30.785 30.092 M 39 29.500 L 39 30 39.500 30 L 40 30 40 29.500 L 40 29 39.500 29 L 39 29 39 29.500 M 49 29.500 L 49 30 49.500 30 L 50 30 50 29.500 L 50 29 49.500 29 L 49 29 49 29.500 M 11 30.500 L 11 31 11.500 31 L 12 31 12 30.500 L 12 30 11.500 30 L 11 30 11 30.500 M 20 30.500 L 20 31 20.500 31 L 21 31 21 30.500 L 21 30 20.500 30 L 20 30 20 30.500 M 13 31.500 L 13 32 13.500 32 L 14 32 14 31.500 L 14 31 13.500 31 L 13 31 13 31.500 M 17 31.500 L 17 32 17.500 32 L 18 32 18 31.500 L 18 31 17.500 31 L 17 31 17 31.500 M 37.500 32 L 38.118 33 38.618 33 L 39.118 33 38.500 32 L 37.882 31 37.382 31 L 36.882 31 37.500 32 M 40 31.500 L 40 32 40.500 32 L 41 32 41 31.500 L 41 31 40.500 31 L 40 31 40 31.500 M 10 32.500 L 10 33 10.500 33 L 11 33 11 32.500 L 11 32 10.500 32 L 10 32 10 32.500 M 15 32.500 L 15 33 15.500 33 L 16 33 16 32.500 L 16 32 15.500 32 L 15 32 15 32.500 M 19 32.500 L 19 33 19.500 33 L 20 33 20 32.500 L 20 32 19.500 32 L 19 32 19 32.500 M 27 32.500 L 27 33 27.500 33 L 28 33 28 32.500 L 28 32 27.500 32 L 27 32 27 32.500 M 12 33.500 L 12 34 12.500 34 L 13 34 13 33.500 L 13 33 12.500 33 L 12 33 12 33.500 M 17 33.500 L 17 34 17.500 34 L 18 34 18 33.500 L 18 33 17.500 33 L 17 33 17 33.500 M 25 33.500 L 25 34 25.500 34 L 26 34 26 33.500 L 26 33 25.500 33 L 25 33 25 33.500 M 8 34.500 L 8 35 8.500 35 L 9 35 9 34.500 L 9 34 8.500 34 L 8 34 8 34.500 M 14 34.500 L 14 35 14.500 35 L 15 35 15 34.500 L 15 34 14.500 34 L 14 34 14 34.500 M 19 34.500 L 19 35 19.500 35 L 20 35 20 34.500 L 20 34 19.500 34 L 19 34 19 34.500 M 22 34.500 L 22 35 22.500 35 L 23 35 23 34.500 L 23 34 22.500 34 L 22 34 22 34.500 M 16 35.500 L 16 36 16.500 36 L 17 36 17 35.500 L 17 35 16.500 35 L 16 35 16 35.500 M 24 35.500 L 24 36 24.500 36 L 25 36 25 35.500 L 25 35 24.500 35 L 24 35 24 35.500 M 9 36.500 L 9 37 9.500 37 L 10 37 10 36.500 L 10 36 9.500 36 L 9 36 9 36.500 M 30 36.500 L 30 37 30.500 37 L 31 37 31 36.500 L 31 36 30.500 36 L 30 36 30 36.500 M 27 37.500 L 27 38 27.500 38 L 28 38 28 37.500 L 28 37 27.500 37 L 27 37 27 37.500 M 7.333 38.667 L 8 39.333 8.667 38.667 L 9.333 38 8 38 L 6.667 38 7.333 38.667 M 29 38.500 L 29 39 29.500 39 L 30 39 30 38.500 L 30 38 29.500 38 L 29 38 29 38.500 M 11 39.500 L 11 40 11.500 40 L 12 40 12 39.500 L 12 39 11.500 39 L 11 39 11 39.500 M 7 40.500 L 7 41 7.500 41 L 8 41 8 40.500 L 8 40 7.500 40 L 7 40 7 40.500 M 15.500 41 L 16.118 42 16.618 42 L 17.118 42 16.500 41 L 15.882 40 15.382 40 L 14.882 40 15.500 41 M 20 40.500 L 20 41 20.500 41 L 21 41 21 40.500 L 21 40 20.500 40 L 20 40 20 40.500 M 11 41.500 L 11 42 11.500 42 L 12 42 12 41.500 L 12 41 11.500 41 L 11 41 11 41.500 M 23 41.500 L 23 42 23.500 42 L 24 42 24 41.500 L 24 41 23.500 41 L 23 41 23 41.500 M 14 42.500 L 14 43 14.500 43 L 15 43 15 42.500 L 15 42 14.500 42 L 14 42 14 42.500 M 18.405 43.155 L 17.691 44.309 18.845 43.595 L 20 42.882 20 42.441 L 20 42 19.559 42 L 19.118 42 18.405 43.155 M 26 42.500 L 26 43 26.500 43 L 27 43 27 42.500 L 27 42 26.500 42 L 26 42 26 42.500 M 22 44 L 22 45.333 22.667 44.667 L 23.333 44 22.667 43.333 L 22 42.667 22 44 M 25 44.500 L 25 45 25.500 45 L 26 45 26 44.500 L 26 44 25.500 44 L 25 44 25 44.500 M 29.333 46.667 L 30 47.333 30.667 46.667 L 31.333 46 30 46 L 28.667 46 29.333 46.667 M 3 54.500 L 3 55 3.500 55 L 4 55 4 54.500 L 4 54 3.500 54 L 3 54 3 54.500 M 6.500 55 L 7.118 56 7.559 56 L 8 56 8 55 L 8 54 6.941 54 L 5.882 54 6.500 55 M 12.667 55.667 L 12 56.333 12 57.367 L 12 58.400 13.183 57.217 L 14.367 56.033 13.850 55.517 L 13.333 55 12.667 55.667 M 19 58 L 19 59.333 19.667 58.667 L 20.333 58 19.667 57.333 L 19 56.667 19 58 M 21 59.500 L 21 60 21.500 60 L 22 60 22 59.500 L 22 59 21.500 59 L 21 59 21 59.500 M 24 60 L 24 61 25 61 L 26 61 26 60 L 26 59 25 59 L 24 59 24 60" stroke="none" fill="#777777" fill-rule="evenodd"/><path d="M 43.500 6 L 44.118 7 44.618 7 L 45.118 7 44.500 6 L 43.882 5 43.382 5 L 42.882 5 43.500 6 M 35.405 7.155 L 34.691 8.309 35.845 7.595 L 37 6.882 37 6.441 L 37 6 36.559 6 L 36.118 6 35.405 7.155 M 38 6.500 L 38 7 38.500 7 L 39 7 39 6.500 L 39 6 38.500 6 L 38 6 38 6.500 M 24 12.500 L 24 13 24.500 13 L 25 13 25 12.500 L 25 12 24.500 12 L 24 12 24 12.500 M 28 12.500 L 28 13 28.500 13 L 29 13 29 12.500 L 29 12 28.500 12 L 28 12 28 12.500 M 35 12.500 L 35 13 35.500 13 L 36 13 36 12.500 L 36 12 35.500 12 L 35 12 35 12.500 M 36 14.500 L 36 15 36.500 15 L 37 15 37 14.500 L 37 14 36.500 14 L 36 14 36 14.500 M 38 14.500 L 38 15 38.500 15 L 39 15 39 14.500 L 39 14 38.500 14 L 38 14 38 14.500 M 30 15.500 L 30 16 30.500 16 L 31 16 31 15.500 L 31 15 30.500 15 L 30 15 30 15.500 M 39 16.500 L 39 17 39.500 17 L 40 17 40 16.500 L 40 16 39.500 16 L 39 16 39 16.500 M 16 17.500 L 16 18 16.500 18 L 17 18 17 17.500 L 17 17 16.500 17 L 16 17 16 17.500 M 42 17.500 L 42 18 42.500 18 L 43 18 43 17.500 L 43 17 42.500 17 L 42 17 42 17.500 M 47 17.500 L 47 18 47.500 18 L 48 18 48 17.500 L 48 17 47.500 17 L 47 17 47 17.500 M 32 18.500 L 32 19 32.500 19 L 33 19 33 18.500 L 33 18 32.500 18 L 32 18 32 18.500 M 43 20.500 L 43 21 43.500 21 L 44 21 44 20.500 L 44 20 43.500 20 L 43 20 43 20.500 M 45 20.500 L 45 21 45.500 21 L 46 21 46 20.500 L 46 20 45.500 20 L 45 20 45 20.500 M 34 21.500 L 34 22 34.500 22 L 35 22 35 21.500 L 35 21 34.500 21 L 34 21 34 21.500 M 13.333 22.667 L 14 23.333 14.667 22.667 L 15.333 22 14 22 L 12.667 22 13.333 22.667 M 32 22.500 L 32 23 32.500 23 L 33 23 33 22.500 L 33 22 32.500 22 L 32 22 32 22.500 M 44 23.500 L 44 24 44.500 24 L 45 24 45 23.500 L 45 23 44.500 23 L 44 23 44 23.500 M 46 23.500 L 46 24 46.500 24 L 47 24 47 23.500 L 47 23 46.500 23 L 46 23 46 23.500 M 27 26.500 L 29.349 29 29.849 29 L 30.349 29 28 26.500 L 25.651 24 25.151 24 L 24.651 24 27 26.500 M 36 24.500 L 36 25 36.500 25 L 37 25 37 24.500 L 37 24 36.500 24 L 36 24 36 24.500 M 18 25.500 L 18 26 18.500 26 L 19 26 19 25.500 L 19 25 18.500 25 L 18 25 18 25.500 M 32.500 26 L 33.118 27 33.618 27 L 34.118 27 33.500 26 L 32.882 25 32.382 25 L 31.882 25 32.500 26 M 13 26.500 L 13 27 13.500 27 L 14 27 14 26.500 L 14 26 13.500 26 L 13 26 13 26.500 M 45 26.500 L 45 27 45.500 27 L 46 27 46 26.500 L 46 26 45.500 26 L 45 26 45 26.500 M 47 26.500 L 47 27 47.500 27 L 48 27 48 26.500 L 48 26 47.500 26 L 47 26 47 26.500 M 11 27.500 L 11 28 11.500 28 L 12 28 12 27.500 L 12 27 11.500 27 L 11 27 11 27.500 M 38 27.500 L 38 28 38.500 28 L 39 28 39 27.500 L 39 27 38.500 27 L 38 27 38 27.500 M 22 28.500 L 22 29 22.500 29 L 23 29 23 28.500 L 23 28 22.500 28 L 22 28 22 28.500 M 50 28.500 L 50 29 50.500 29 L 51 29 51 28.500 L 51 28 50.500 28 L 50 28 50 28.500 M 10 29.500 L 10 30 10.500 30 L 11 30 11 29.500 L 11 29 10.500 29 L 10 29 10 29.500 M 18 29.500 L 18 30 18.500 30 L 19 30 19 29.500 L 19 29 18.500 29 L 18 29 18 29.500 M 34.500 31 L 36.310 33 36.810 33 L 37.310 33 35.500 31 L 33.690 29 33.190 29 L 32.690 29 34.500 31 M 38.733 30.124 L 39.967 31.367 40.526 30.807 L 41.086 30.247 39.293 29.564 L 37.500 28.882 38.733 30.124 M 45.333 29.667 L 46 30.333 46.667 29.667 L 47.333 29 46 29 L 44.667 29 45.333 29.667 M 48 29.500 L 48 30 48.500 30 L 49 30 49 29.500 L 49 29 48.500 29 L 48 29 48 29.500 M 16 30.500 L 16 31 16.500 31 L 17 31 17 30.500 L 17 30 16.500 30 L 16 30 16 30.500 M 26 31.500 L 26 32 26.500 32 L 27 32 27 31.500 L 27 31 26.500 31 L 26 31 26 31.500 M 43 31.500 L 43 32 43.500 32 L 44 32 44 31.500 L 44 31 43.500 31 L 43 31 43 31.500 M 9 32.500 L 9 33 9.500 33 L 10 33 10 32.500 L 10 32 9.500 32 L 9 32 9 32.500 M 23 32.500 L 23 33 23.500 33 L 24 33 24 32.500 L 24 32 23.500 32 L 23 32 23 32.500 M 21 33.500 L 21 34 21.500 34 L 22 34 22 33.500 L 22 33 21.500 33 L 21 33 21 33.500 M 30 34.500 L 30 35 30.500 35 L 31 35 31 34.500 L 31 34 30.500 34 L 30 34 30 34.500 M 8 35.500 L 8 36 8.500 36 L 9 36 9 35.500 L 9 35 8.500 35 L 8 35 8 35.500 M 28 35.500 L 28 36 28.500 36 L 29 36 29 35.500 L 29 35 28.500 35 L 28 35 28 35.500 M 18 36.500 L 18 37 18.500 37 L 19 37 19 36.500 L 19 36 18.500 36 L 18 36 18 36.500 M 26 36.500 L 26 37 26.500 37 L 27 37 27 36.500 L 27 36 26.500 36 L 26 36 26 36.500 M 20 37.500 L 20 38 20.500 38 L 21 38 21 37.500 L 21 37 20.500 37 L 20 37 20 37.500 M 24 37.500 L 24 38 24.500 38 L 25 38 25 37.500 L 25 37 24.500 37 L 24 37 24 37.500 M 33.405 38.155 L 32.691 39.309 33.845 38.595 L 35 37.882 35 37.441 L 35 37 34.559 37 L 34.118 37 33.405 38.155 M 9 38.500 L 9 39 9.500 39 L 10 39 10 38.500 L 10 38 9.500 38 L 9 38 9 38.500 M 22 38.500 L 22 39 22.500 39 L 23 39 23 38.500 L 23 38 22.500 38 L 22 38 22 38.500 M 26 38.500 L 26 39 26.500 39 L 27 39 27 38.500 L 27 38 26.500 38 L 26 38 26 38.500 M 6 39.500 L 6 40 6.500 40 L 7 40 7 39.500 L 7 39 6.500 39 L 6 39 6 39.500 M 17 39.500 L 17 40 17.500 40 L 18 40 18 39.500 L 18 39 17.500 39 L 17 39 17 39.500 M 28 39.500 L 28 40 28.500 40 L 29 40 29 39.500 L 29 39 28.500 39 L 28 39 28 39.500 M 30.405 40.155 L 29.691 41.309 30.845 40.595 L 32 39.882 32 39.441 L 32 39 31.559 39 L 31.118 39 30.405 40.155 M 10 41.500 L 10 42 10.500 42 L 11 42 11 41.500 L 11 41 10.500 41 L 10 41 10 41.500 M 17 41.500 L 17 42 17.500 42 L 18 42 18 41.500 L 18 41 17.500 41 L 17 41 17 41.500 M 32.333 41.667 L 33 42.333 33.667 41.667 L 34.333 41 33 41 L 31.667 41 32.333 41.667 M 17 43.500 L 17 44 17.500 44 L 18 44 18 43.500 L 18 43 17.500 43 L 17 43 17 43.500 M 28 43.500 L 28 44 28.500 44 L 29 44 29 43.500 L 29 43 28.500 43 L 28 43 28 43.500 M 21 44.500 L 21 45 21.500 45 L 22 45 22 44.500 L 22 44 21.500 44 L 21 44 21 44.500 M 31 44.500 L 31 45 31.500 45 L 32 45 32 44.500 L 32 44 31.500 44 L 31 44 31 44.500 M 25 45.500 L 25 46 25.500 46 L 26 46 26 45.500 L 26 45 25.500 45 L 25 45 25 45.500 M 28 46 L 28 47.333 28.667 46.667 L 29.333 46 28.667 45.333 L 28 44.667 28 46 M 31 46.500 L 31 47 31.500 47 L 32 47 32 46.500 L 32 46 31.500 46 L 31 46 31 46.500 M 4 54 L 4 55.333 4.667 54.667 L 5.333 54 4.667 53.333 L 4 52.667 4 54 M 7 53.500 L 7 54 7.500 54 L 8 54 8 53.500 L 8 53 7.500 53 L 7 53 7 53.500 M 9.405 56.155 L 8.691 57.309 9.845 56.595 L 11 55.882 11 55.441 L 11 55 10.559 55 L 10.118 55 9.405 56.155 M 12 55.500 L 12 56 12.500 56 L 13 56 13 55.500 L 13 55 12.500 55 L 12 55 12 55.500 M 15.500 57 L 14.882 58 15.941 58 L 17 58 17 57 L 17 56 16.559 56 L 16.118 56 15.500 57 M 13 57.500 L 13 58 13.500 58 L 14 58 14 57.500 L 14 57 13.500 57 L 13 57 13 57.500 M 18 57.500 L 18 58 18.500 58 L 19 58 19 57.500 L 19 57 18.500 57 L 18 57 18 57.500 M 22 59 L 22 60.333 22.667 59.667 L 23.333 59 22.667 58.333 L 22 57.667 22 59 M 25 58.500 L 25 59 25.500 59 L 26 59 26 58.500 L 26 58 25.500 58 L 25 58 25 58.500 M 27.333 60.667 L 28 61.333 28.667 60.667 L 29.333 60 28 60 L 26.667 60 27.333 60.667" stroke="none" fill="#515151" fill-rule="evenodd"/><path d="M 49 2.500 L 49 3 49.500 3 L 50 3 50 2.500 L 50 2 49.500 2 L 49 2 49 2.500 M 50 8.500 L 50 9 50.500 9 L 51 9 51 8.500 L 51 8 50.500 8 L 50 8 50 8.500 M 57 13.500 L 57 14 57.500 14 L 58 14 58 13.500 L 58 13 57.500 13 L 57 13 57 13.500 M 57 21 L 57 22.333 57.667 21.667 L 58.333 21 57.667 20.333 L 57 19.667 57 21 M 50 22.500 L 50 23 50.500 23 L 51 23 51 22.500 L 51 22 50.500 22 L 50 22 50 22.500 M 58 23.500 L 58 24 58.500 24 L 59 24 59 23.500 L 59 23 58.500 23 L 58 23 58 23.500 M 60 24.500 L 60 25 60.500 25 L 61 25 61 24.500 L 61 24 60.500 24 L 60 24 60 24.500 M 58 33.500 L 58 34 58.500 34 L 59 34 59 33.500 L 59 33 58.500 33 L 58 33 58 33.500 M 11 43.500 L 11 44 11.500 44 L 12 44 12 43.500 L 12 43 11.500 43 L 11 43 11 43.500 M 2 45.500 L 2 46 2.500 46 L 3 46 3 45.500 L 3 45 2.500 45 L 2 45 2 45.500 M 7 46.500 L 7 47 7.500 47 L 8 47 8 46.500 L 8 46 7.500 46 L 7 46 7 46.500 M 22 46.500 L 22 47 22.500 47 L 23 47 23 46.500 L 23 46 22.500 46 L 22 46 22 46.500 M 8.405 50.155 L 7.691 51.309 8.845 50.595 L 10 49.882 10 49.441 L 10 49 9.559 49 L 9.118 49 8.405 50.155 M 11 49.500 L 11 50 11.500 50 L 12 50 12 49.500 L 12 49 11.500 49 L 11 49 11 49.500 M 23.333 49.667 L 24 50.333 24.667 49.667 L 25.333 49 24 49 L 22.667 49 23.333 49.667 M 13 53.500 L 13 54 13.500 54 L 14 54 14 53.500 L 14 53 13.500 53 L 13 53 13 53.500 M 20 53.500 L 20 54 20.500 54 L 21 54 21 53.500 L 21 53 20.500 53 L 20 53 20 53.500 M 33 54.500 L 33 55 33.500 55 L 34 55 34 54.500 L 34 54 33.500 54 L 33 54 33 54.500 M 24 56.500 L 24 57 24.500 57 L 25 57 25 56.500 L 25 56 24.500 56 L 24 56 24 56.500" stroke="none" fill="#26080a" fill-rule="evenodd"/><path d="M 50 6 L 50 7 51 7 L 52 7 52 6 L 52 5 51 5 L 50 5 50 6 M 56 30 L 56 31 57 31 L 58 31 58 30 L 58 29 57 29 L 56 29 56 30 M 4 46 L 4 47 5 47 L 6 47 6 46 L 6 45 5 45 L 4 45 4 46 M 30 53 L 30 54 31 54 L 32 54 32 53 L 32 52 31 52 L 30 52 30 53" stroke="none" fill="#ff8d91" fill-rule="evenodd"/><path d="M 49.188 5.739 L 49.523 7.477 51.261 7.812 L 53 8.147 53 6.073 L 53 4 50.927 4 L 48.853 4 49.188 5.739 M 50 6 L 50 7 51 7 L 52 7 52 6 L 52 5 51 5 L 50 5 50 6 M 46 9.500 L 46 10 46.500 10 L 47 10 47 9.500 L 47 9 46.500 9 L 46 9 46 9.500 M 47 13.500 L 47 14 47.500 14 L 48 14 48 13.500 L 48 13 47.500 13 L 47 13 47 13.500 M 55 28.969 L 55 29.937 56.500 29.362 L 58 28.786 58 29.810 L 58 30.833 56.750 31.338 L 55.500 31.842 57.250 31.921 L 59 32 59 30 L 59 28 57 28 L 55 28 55 28.969 M 3.500 45 L 2.882 46 3.500 47 L 4.118 48 5.559 48 L 7 48 7 46 L 7 44 5.559 44 L 4.118 44 3.500 45 M 4 46 L 4 47 5 47 L 6 47 6 46 L 6 45 5 45 L 4 45 4 46 M 29 53 L 29 55 31 55 L 33 55 33 53 L 33 51 31 51 L 29 51 29 53 M 30 53 L 30 54 31 54 L 32 54 32 53 L 32 52 31 52 L 30 52 30 53" stroke="none" fill="#fb4a59" fill-rule="evenodd"/><path d="M 42 6.988 L 42 7.976 45.100 17.738 L 48.199 27.500 49.100 28.450 L 50 29.400 50 28.947 L 50 28.494 48.030 21.603 L 46.059 14.713 46.589 13.857 L 47.118 13 45.942 13 L 44.767 13 45.290 11 L 45.813 9 44.906 9 L 44 9 44 7.500 L 44 6 43 6 L 42 6 42 6.988 M 30.467 9.053 L 29.817 10.105 35.026 18.039 L 40.234 25.973 41.318 25.303 L 42.401 24.634 41.269 24.256 L 40.136 23.879 36.410 15.939 L 32.685 8 31.901 8 L 31.118 8 30.467 9.053 M 20.460 15.065 L 19.800 16.133 20.150 16.338 L 20.500 16.543 29.953 25.521 L 39.405 34.500 33.953 28.203 L 28.500 21.907 27.134 19.703 L 25.768 17.500 23.444 15.749 L 21.120 13.997 20.460 15.065 M 12.527 23.956 L 11.936 24.912 14.218 26.360 L 16.500 27.807 23.500 32.022 L 30.500 36.238 31.250 36.678 L 32 37.118 32 36.059 L 32 35 30.941 35 L 29.882 35 22 29 L 14.118 23 13.618 23 L 13.118 23 12.527 23.956 M 41.500 28 L 42.118 29 42.559 29 L 43 29 43 28 L 43 27 41.941 27 L 40.882 27 41.500 28 M 9.015 34.250 L 9.031 35.500 9.904 36.878 L 10.776 38.256 11.808 37.619 L 12.839 36.982 14.178 38.321 L 15.518 39.661 16.624 39.292 L 17.731 38.923 22.902 40.962 L 28.074 43 28.787 42.949 L 29.500 42.898 20 38 L 10.500 33.102 9.750 33.051 L 9 33 9.015 34.250 M 33 37.500 L 33 38 33.500 38 L 34 38 34 37.500 L 34 37 33.500 37 L 33 37 33 37.500 M 30 43.500 L 30 44 30.500 44 L 31 44 31 43.500 L 31 43 30.500 43 L 30 43 30 43.500" stroke="none" fill="#eeedec" fill-rule="evenodd"/><path d="M 44 5.500 L 44 6 44.500 6 L 45 6 45 5.500 L 45 5 44.500 5 L 44 5 44 5.500 M 39 6.500 L 39 7 39.500 7 L 40 7 40 6.500 L 40 6 39.500 6 L 39 6 39 6.500 M 34 9.500 L 34 10 34.500 10 L 35 10 35 9.500 L 35 9 34.500 9 L 34 9 34 9.500 M 40 9.500 L 40 10 40.500 10 L 41 10 41 9.500 L 41 9 40.500 9 L 40 9 40 9.500 M 35 11.500 L 35 12 35.500 12 L 36 12 36 11.500 L 36 11 35.500 11 L 35 11 35 11.500 M 41 12.500 L 41 13 41.500 13 L 42 13 42 12.500 L 42 12 41.500 12 L 41 12 41 12.500 M 23.733 15.124 L 24.967 16.367 25.526 15.807 L 26.086 15.247 24.293 14.564 L 22.500 13.882 23.733 15.124 M 38 15.500 L 38 16 38.500 16 L 39 16 39 15.500 L 39 15 38.500 15 L 38 15 38 15.500 M 15 17.500 L 15 18 15.500 18 L 16 18 16 17.500 L 16 17 15.500 17 L 15 17 15 17.500 M 39 17.500 L 39 18 39.500 18 L 40 18 40 17.500 L 40 17 39.500 17 L 39 17 39 17.500 M 28 18.500 L 28 19 28.500 19 L 29 19 29 18.500 L 29 18 28.500 18 L 28 18 28 18.500 M 23.500 21 L 25.310 23 25.810 23 L 26.310 23 24.500 21 L 22.690 19 22.190 19 L 21.690 19 23.500 21 M 45 21.500 L 45 22 45.500 22 L 46 22 46 21.500 L 46 21 45.500 21 L 45 21 45 21.500 M 30 22.500 L 30 23 30.500 23 L 31 23 31 22.500 L 31 22 30.500 22 L 30 22 30 22.500 M 40.333 22.667 L 41 23.333 41.667 22.667 L 42.333 22 41 22 L 39.667 22 40.333 22.667 M 16 23.500 L 16 24 16.500 24 L 17 24 17 23.500 L 17 23 16.500 23 L 16 23 16 23.500 M 49 23.500 L 49 24 49.500 24 L 50 24 50 23.500 L 50 23 49.500 23 L 49 23 49 23.500 M 46 24.500 L 46 25 46.500 25 L 47 25 47 24.500 L 47 24 46.500 24 L 46 24 46 24.500 M 34.500 26 L 35.118 27 35.618 27 L 36.118 27 35.500 26 L 34.882 25 34.382 25 L 33.882 25 34.500 26 M 20 26.500 L 20 27 20.500 27 L 21 27 21 26.500 L 21 26 20.500 26 L 20 26 20 26.500 M 12 27.500 L 12 28 12.500 28 L 13 28 13 27.500 L 13 27 12.500 27 L 12 27 12 27.500 M 14 27.500 L 14 28 14.500 28 L 15 28 15 27.500 L 15 27 14.500 27 L 14 27 14 27.500 M 23 27.500 L 23 28 23.500 28 L 24 28 24 27.500 L 24 27 23.500 27 L 23 27 23 27.500 M 47 27.500 L 47 28 47.500 28 L 48 28 48 27.500 L 48 27 47.500 27 L 47 27 47 27.500 M 44 28.500 L 44 29 44.500 29 L 45 29 45 28.500 L 45 28 44.500 28 L 44 28 44 28.500 M 24 29.500 L 24 30 24.500 30 L 25 30 25 29.500 L 25 29 24.500 29 L 24 29 24 29.500 M 36 29.500 L 36 30 36.500 30 L 37 30 37 29.500 L 37 29 36.500 29 L 36 29 36 29.500 M 10 30.500 L 10 31 10.500 31 L 11 31 11 30.500 L 11 30 10.500 30 L 10 30 10 30.500 M 17 30.500 L 17 31 17.500 31 L 18 31 18 30.500 L 18 30 17.500 30 L 17 30 17 30.500 M 19 30.500 L 19 31 19.500 31 L 20 31 20 30.500 L 20 30 19.500 30 L 19 30 19 30.500 M 27 30.500 L 27 31 27.500 31 L 28 31 28 30.500 L 28 30 27.500 30 L 27 30 27 30.500 M 45 30.500 L 45 31 45.500 31 L 46 31 46 30.500 L 46 30 45.500 30 L 45 30 45 30.500 M 35 33.500 L 37.349 36 37.849 36 L 38.349 36 36 33.500 L 33.651 31 33.151 31 L 32.651 31 35 33.500 M 28 32.500 L 28 33 28.500 33 L 29 33 29 32.500 L 29 32 28.500 32 L 28 32 28 32.500 M 40 32.500 L 40 33 40.500 33 L 41 33 41 32.500 L 41 32 40.500 32 L 40 32 40 32.500 M 13 33.500 L 13 34 13.500 34 L 14 34 14 33.500 L 14 33 13.500 33 L 13 33 13 33.500 M 22 33.500 L 22 34 22.500 34 L 23 34 23 33.500 L 23 33 22.500 33 L 22 33 22 33.500 M 24 33.500 L 24 34 24.500 34 L 25 34 25 33.500 L 25 33 24.500 33 L 24 33 24 33.500 M 15 34.500 L 15 35 15.500 35 L 16 35 16 34.500 L 16 34 15.500 34 L 15 34 15 34.500 M 39 34.500 L 39 35 39.500 35 L 40 35 40 34.500 L 40 34 39.500 34 L 39 34 39 34.500 M 17 35.500 L 17 36 17.500 36 L 18 36 18 35.500 L 18 35 17.500 35 L 17 35 17 35.500 M 8 36.500 L 8 37 8.500 37 L 9 37 9 36.500 L 9 36 8.500 36 L 8 36 8 36.500 M 19 36.500 L 19 37 19.500 37 L 20 37 20 36.500 L 20 36 19.500 36 L 19 36 19 36.500 M 27 36.500 L 27 37 27.500 37 L 28 37 28 36.500 L 28 36 27.500 36 L 27 36 27 36.500 M 29 36.500 L 29 37 29.500 37 L 30 37 30 36.500 L 30 36 29.500 36 L 29 36 29 36.500 M 35 36.500 L 35 37 35.500 37 L 36 37 36 36.500 L 36 36 35.500 36 L 35 36 35 36.500 M 35 38.500 L 35 39 35.500 39 L 36 39 36 38.500 L 36 38 35.500 38 L 35 38 35 38.500 M 27 39.500 L 27 40 27.500 40 L 28 40 28 39.500 L 28 39 27.500 39 L 27 39 27 39.500 M 32 39.500 L 32 40 32.500 40 L 33 40 33 39.500 L 33 39 32.500 39 L 32 39 32 39.500 M 6 40.500 L 6 41 6.500 41 L 7 41 7 40.500 L 7 40 6.500 40 L 6 40 6 40.500 M 29 40.500 L 29 41 29.500 41 L 30 41 30 40.500 L 30 40 29.500 40 L 29 40 29 40.500 M 31 41.500 L 31 42 31.500 42 L 32 42 32 41.500 L 32 41 31.500 41 L 31 41 31 41.500 M 12 42.500 L 12 43 12.500 43 L 13 43 13 42.500 L 13 42 12.500 42 L 12 42 12 42.500 M 21 42.500 L 21 43 21.500 43 L 22 43 22 42.500 L 22 42 21.500 42 L 21 42 21 42.500 M 24 43.500 L 24 44 24.500 44 L 25 44 25 43.500 L 25 43 24.500 43 L 24 43 24 43.500 M 27 43.500 L 27 44 27.500 44 L 28 44 28 43.500 L 28 43 27.500 43 L 27 43 27 43.500 M 30 44.500 L 30 45 30.500 45 L 31 45 31 44.500 L 31 44 30.500 44 L 30 44 30 44.500 M 23 45.500 L 23 46 23.500 46 L 24 46 24 45.500 L 24 45 23.500 45 L 23 45 23 45.500 M 3 52.500 L 3 53 3.500 53 L 4 53 4 52.500 L 4 52 3.500 52 L 3 52 3 52.500 M 21 57.500 L 21 58 21.500 58 L 22 58 22 57.500 L 22 57 21.500 57 L 21 57 21 57.500 M 21.333 60.667 L 22 61.333 22.667 60.667 L 23.333 60 22 60 L 20.667 60 21.333 60.667" stroke="none" fill="#0b0b0b" fill-rule="evenodd"/><path d="M 41.405 6.155 L 40.691 7.309 41.845 6.595 L 43 5.882 43 5.441 L 43 5 42.559 5 L 42.118 5 41.405 6.155 M 36 7.522 L 36 8.044 39 14.660 L 42 21.277 42 22.245 L 42 23.214 40.532 22.651 L 39.064 22.087 38.458 23.068 L 37.851 24.050 38.676 23.827 L 39.500 23.604 41.822 24.392 L 44.145 25.181 43.513 26.840 L 42.882 28.500 44.053 27.338 L 45.224 26.176 42.029 16.588 L 38.835 7 37.418 7 L 36 7 36 7.522 M 30 8.500 L 30 9 30.500 9 L 31 9 31 8.500 L 31 8 30.500 8 L 30 8 30 8.500 M 44.333 8.667 L 45 9.333 45.667 8.667 L 46.333 8 45 8 L 43.667 8 44.333 8.667 M 33 9.500 L 33 10 33.500 10 L 34 10 34 9.500 L 34 9 33.500 9 L 33 9 33 9.500 M 42 9.500 L 42 10 42.500 10 L 43 10 43 9.500 L 43 9 42.500 9 L 42 9 42 9.500 M 25.556 11.910 L 24.994 12.820 25.604 14.410 L 26.214 16 25.307 16 L 24.400 16 23.429 15.250 L 22.458 14.500 24.333 16.245 L 26.208 17.989 27.072 17.456 L 27.935 16.922 31.356 20.711 L 34.778 24.500 36.951 27 L 39.124 29.500 33.036 20.250 L 26.948 11 26.533 11 L 26.118 11 25.556 11.910 M 30 11.500 L 30 12 30.500 12 L 31 12 31 11.500 L 31 11 30.500 11 L 30 11 30 11.500 M 34 11.500 L 34 12 34.500 12 L 35 12 35 11.500 L 35 11 34.500 11 L 34 11 34 11.500 M 45 12 L 45 13 46.059 13 L 47.118 13 46.500 12 L 45.882 11 45.441 11 L 45 11 45 12 M 35 13.500 L 35 14 35.500 14 L 36 14 36 13.500 L 36 13 35.500 13 L 35 13 35 13.500 M 20 14.500 L 20 15 20.500 15 L 21 15 21 14.500 L 21 14 20.500 14 L 20 14 20 14.500 M 32 14.500 L 32 15 32.500 15 L 33 15 33 14.500 L 33 14 32.500 14 L 32 14 32 14.500 M 36 15.500 L 36 16 36.500 16 L 37 16 37 15.500 L 37 15 36.500 15 L 36 15 36 15.500 M 46 15.500 L 46 16 46.500 16 L 47 16 47 15.500 L 47 15 46.500 15 L 46 15 46 15.500 M 34 17.500 L 34 18 34.500 18 L 35 18 35 17.500 L 35 17 34.500 17 L 34 17 34 17.500 M 37 17.500 L 37 18 37.500 18 L 38 18 38 17.500 L 38 17 37.500 17 L 37 17 37 17.500 M 16 19.406 L 16 20.811 23.971 26.656 L 31.943 32.500 31.610 33.500 L 31.277 34.500 32.068 36.500 L 32.859 38.500 32.930 36.191 L 33 33.882 34.250 34.577 L 35.500 35.271 27.022 26.636 L 18.544 18 17.272 18 L 16 18 16 19.406 M 25 21.500 L 28.392 25 28.892 25 L 29.392 25 26 21.500 L 22.608 18 22.108 18 L 21.608 18 25 21.500 M 45 19.500 L 45 20 45.500 20 L 46 20 46 19.500 L 46 19 45.500 19 L 45 19 45 19.500 M 47 19.500 L 47 20 47.500 20 L 48 20 48 19.500 L 48 19 47.500 19 L 47 19 47 19.500 M 28.500 22 L 30.310 24 30.810 24 L 31.310 24 29.500 22 L 27.690 20 27.190 20 L 26.690 20 28.500 22 M 36 20.500 L 36 21 36.500 21 L 37 21 37 20.500 L 37 20 36.500 20 L 36 20 36 20.500 M 46 22.500 L 46 23 46.500 23 L 47 23 47 22.500 L 47 22 46.500 22 L 46 22 46 22.500 M 48 22.500 L 48 23 48.500 23 L 49 23 49 22.500 L 49 22 48.500 22 L 48 22 48 22.500 M 12 23.500 L 12 24 12.500 24 L 13 24 13 23.500 L 13 23 12.500 23 L 12 23 12 23.500 M 16.500 25 L 17.118 26 17.618 26 L 18.118 26 17.500 25 L 16.882 24 16.382 24 L 15.882 24 16.500 25 M 12 25.500 L 12 26 12.500 26 L 13 26 13 25.500 L 13 25 12.500 25 L 12 25 12 25.500 M 47 25.500 L 47 26 47.500 26 L 48 26 48 25.500 L 48 25 47.500 25 L 47 25 47 25.500 M 40.333 26.667 L 41 27.333 41.667 26.667 L 42.333 26 41 26 L 39.667 26 40.333 26.667 M 49 26.500 L 49 27 49.500 27 L 50 27 50 26.500 L 50 26 49.500 26 L 49 26 49 26.500 M 20.500 28 L 21.118 29 21.618 29 L 22.118 29 21.500 28 L 20.882 27 20.382 27 L 19.882 27 20.500 28 M 11 28.910 L 11 29.891 21.355 35.446 L 31.710 41 32.554 41 L 33.397 41 23.949 35.409 L 14.500 29.818 12.750 28.874 L 11 27.930 11 28.910 M 17 28.500 L 17 29 17.500 29 L 18 29 18 28.500 L 18 28 17.500 28 L 17 28 17 28.500 M 34 28.378 L 34 28.755 35.750 30.128 L 37.500 31.500 36.128 29.750 L 34.755 28 34.378 28 L 34 28 34 28.378 M 45 28.500 L 45 29 45.500 29 L 46 29 46 28.500 L 46 28 45.500 28 L 45 28 45 28.500 M 48 28.500 L 48 29 48.500 29 L 49 29 49 28.500 L 49 28 48.500 28 L 48 28 48 28.500 M 42.500 30 L 43.118 31 43.618 31 L 44.118 31 43.500 30 L 42.882 29 42.382 29 L 41.882 29 42.500 30 M 24.500 31 L 25.118 32 25.618 32 L 26.118 32 25.500 31 L 24.882 30 24.382 30 L 23.882 30 24.500 31 M 22 31.500 L 22 32 22.500 32 L 23 32 23 31.500 L 23 31 22.500 31 L 22 31 22 31.500 M 8 33.500 L 8 34 8.500 34 L 9 34 9 33.500 L 9 33 8.500 33 L 8 33 8 33.500 M 11 33.500 L 11 34 11.500 34 L 12 34 12 33.500 L 12 33 11.500 33 L 11 33 11 33.500 M 27.603 33.833 L 27.088 34.667 28.500 34.667 L 29.912 34.667 29.397 33.833 L 28.882 33 28.500 33 L 28.118 33 27.603 33.833 M 13 34.500 L 13 35 13.500 35 L 14 35 14 34.500 L 14 34 13.500 34 L 13 34 13 34.500 M 15 35.500 L 15 36 15.500 36 L 16 36 16 35.500 L 16 35 15.500 35 L 15 35 15 35.500 M 17 36.500 L 17 37 17.500 37 L 18 37 18 36.500 L 18 36 17.500 36 L 17 36 17 36.500 M 9.500 38.500 L 6.500 39.838 8 40.373 L 9.500 40.907 15.324 42.546 L 21.148 44.185 21.646 43.688 L 22.143 43.190 19.004 42.501 L 15.866 41.812 14.996 39.656 L 14.127 37.500 14.063 38.750 L 14 40 12.378 40 L 10.755 40 12 38.500 L 13.245 37 12.872 37.081 L 12.500 37.162 9.500 38.500 M 19 37.500 L 19 38 19.500 38 L 20 38 20 37.500 L 20 37 19.500 37 L 19 37 19 37.500 M 21 38.500 L 21 39 21.500 39 L 22 39 22 38.500 L 22 38 21.500 38 L 21 38 21 38.500 M 34 38.500 L 34 39 34.500 39 L 35 39 35 38.500 L 35 38 34.500 38 L 34 38 34 38.500 M 18 39.500 L 18 40 18.500 40 L 19 40 19 39.500 L 19 39 18.500 39 L 18 39 18 39.500 M 23 39.500 L 23 40 23.500 40 L 24 40 24 39.500 L 24 39 23.500 39 L 23 39 23 39.500 M 21 40.500 L 21 41 21.500 41 L 22 41 22 40.500 L 22 40 21.500 40 L 21 40 21 40.500 M 25 40.500 L 25 41 25.500 41 L 26 41 26 40.500 L 26 40 25.500 40 L 25 40 25 40.500 M 27 41.500 L 27 42 27.500 42 L 28 42 28 41.500 L 28 41 27.500 41 L 27 41 27 41.500 M 29 43 L 29 44.333 29.667 43.667 L 30.333 43 29.667 42.333 L 29 41.667 29 43 M 31 43.500 L 31 44 31.500 44 L 32 44 32 43.500 L 32 43 31.500 43 L 31 43 31 43.500 M 23.333 44.667 L 24 45.333 24.667 44.667 L 25.333 44 24 44 L 22.667 44 23.333 44.667 M 26.333 45.667 L 27 46.333 27.667 45.667 L 28.333 45 27 45 L 25.667 45 26.333 45.667 M 6 55.500 L 6 56 6.500 56 L 7 56 7 55.500 L 7 55 6.500 55 L 6 55 6 55.500 M 18 58.500 L 18 59 18.500 59 L 19 59 19 58.500 L 19 58 18.500 58 L 18 58 18 58.500" stroke="none" fill="#adacac" fill-rule="evenodd"/><path d="M 41 5.500 L 41 6 41.500 6 L 42 6 42 5.500 L 42 5 41.500 5 L 41 5 41 5.500 M 35 8.500 L 35 9 35.500 9 L 36 9 36 8.500 L 36 8 35.500 8 L 35 8 35 8.500 M 41 8.500 L 41 9 41.500 9 L 42 9 42 8.500 L 42 8 41.500 8 L 41 8 41 8.500 M 29.405 13.155 L 28.691 14.309 29.845 13.595 L 31 12.882 31 12.441 L 31 12 30.559 12 L 30.118 12 29.405 13.155 M 31.405 16.155 L 30.691 17.309 31.845 16.595 L 33 15.882 33 15.441 L 33 15 32.559 15 L 32.118 15 31.405 16.155 M 18.600 16.838 L 18.022 17.773 19.422 18.935 L 20.822 20.097 21.400 19.162 L 21.978 18.227 20.578 17.065 L 19.178 15.903 18.600 16.838 M 47 16.500 L 47 17 47.500 17 L 48 17 48 16.500 L 48 16 47.500 16 L 47 16 47 16.500 M 19.500 18 L 20.118 19 20.618 19 L 21.118 19 20.500 18 L 19.882 17 19.382 17 L 18.882 17 19.500 18 M 33.405 19.155 L 32.691 20.309 33.845 19.595 L 35 18.882 35 18.441 L 35 18 34.559 18 L 34.118 18 33.405 19.155 M 28.553 19.915 L 27.967 20.862 28.915 21.447 L 29.862 22.033 30.447 21.085 L 31.033 20.138 30.085 19.553 L 29.138 18.967 28.553 19.915 M 39.405 20.155 L 38.691 21.309 39.845 20.595 L 41 19.882 41 19.441 L 41 19 40.559 19 L 40.118 19 39.405 20.155 M 29 20.500 L 29 21 29.500 21 L 30 21 30 20.500 L 30 20 29.500 20 L 29 20 29 20.500 M 35.405 22.155 L 34.691 23.309 35.845 22.595 L 37 21.882 37 21.441 L 37 21 36.559 21 L 36.118 21 35.405 22.155 M 41 21.500 L 41 22 41.500 22 L 42 22 42 21.500 L 42 21 41.500 21 L 41 21 41 21.500 M 44 22.500 L 44 23 44.500 23 L 45 23 45 22.500 L 45 22 44.500 22 L 44 22 44 22.500 M 17.405 24.155 L 16.691 25.309 17.845 24.595 L 19 23.882 19 23.441 L 19 23 18.559 23 L 18.118 23 17.405 24.155 M 37.405 25.155 L 36.691 26.309 37.845 25.595 L 39 24.882 39 24.441 L 39 24 38.559 24 L 38.118 24 37.405 25.155 M 45 25.500 L 45 26 45.500 26 L 46 26 46 25.500 L 46 25 45.500 25 L 45 25 45 25.500 M 21.405 27.155 L 20.691 28.309 21.845 27.595 L 23 26.882 23 26.441 L 23 26 22.559 26 L 22.118 26 21.405 27.155 M 10 27.500 L 10 28 10.500 28 L 11 28 11 27.500 L 11 27 10.500 27 L 10 27 10 27.500 M 35.405 28.155 L 34.691 29.309 35.845 28.595 L 37 27.882 37 27.441 L 37 27 36.559 27 L 36.118 27 35.405 28.155 M 39.405 28.155 L 38.691 29.309 39.845 28.595 L 41 27.882 41 27.441 L 41 27 40.559 27 L 40.118 27 39.405 28.155 M 50 27.500 L 50 28 50.500 28 L 51 28 51 27.500 L 51 27 50.500 27 L 50 27 50 27.500 M 15.405 29.155 L 14.691 30.309 15.845 29.595 L 17 28.882 17 28.441 L 17 28 16.559 28 L 16.118 28 15.405 29.155 M 43 28.500 L 43 29 43.500 29 L 44 29 44 28.500 L 44 28 43.500 28 L 43 28 43 28.500 M 46 28.500 L 46 29 46.500 29 L 47 29 47 28.500 L 47 28 46.500 28 L 46 28 46 28.500 M 25.405 30.155 L 24.691 31.309 25.845 30.595 L 27 29.882 27 29.441 L 27 29 26.559 29 L 26.118 29 25.405 30.155 M 41.405 31.155 L 40.691 32.309 41.845 31.595 L 43 30.882 43 30.441 L 43 30 42.559 30 L 42.118 30 41.405 31.155 M 11.405 32.155 L 10.691 33.309 11.845 32.595 L 13 31.882 13 31.441 L 13 31 12.559 31 L 12.118 31 11.405 32.155 M 20.405 32.155 L 19.691 33.309 20.845 32.595 L 22 31.882 22 31.441 L 22 31 21.559 31 L 21.118 31 20.405 32.155 M 14 32.500 L 14 33 14.500 33 L 15 33 15 32.500 L 15 32 14.500 32 L 14 32 14 32.500 M 29.405 33.155 L 28.691 34.309 29.845 33.595 L 31 32.882 31 32.441 L 31 32 30.559 32 L 30.118 32 29.405 33.155 M 25.405 35.155 L 24.691 36.309 25.845 35.595 L 27 34.882 27 34.441 L 27 34 26.559 34 L 26.118 34 25.405 35.155 M 38 34.500 L 38 35 38.500 35 L 39 35 39 34.500 L 39 34 38.500 34 L 38 34 38 34.500 M 33.405 36.155 L 32.691 37.309 33.845 36.595 L 35 35.882 35 35.441 L 35 35 34.559 35 L 34.118 35 33.405 36.155 M 30.405 38.155 L 29.691 39.309 30.845 38.595 L 32 37.882 32 37.441 L 32 37 31.559 37 L 31.118 37 30.405 38.155 M 13 39.500 L 13 40 13.500 40 L 14 40 14 39.500 L 14 39 13.500 39 L 13 39 13 39.500 M 18.405 41.155 L 17.691 42.309 18.845 41.595 L 20 40.882 20 40.441 L 20 40 19.559 40 L 19.118 40 18.405 41.155 M 9 41.500 L 9 42 9.500 42 L 10 42 10 41.500 L 10 41 9.500 41 L 9 41 9 41.500 M 22 41.500 L 22 42 22.500 42 L 23 42 23 41.500 L 23 41 22.500 41 L 22 41 22 41.500 M 16 43.500 L 16 44 16.500 44 L 17 44 17 43.500 L 17 43 16.500 43 L 16 43 16 43.500 M 32 43.500 L 32 44 32.500 44 L 33 44 33 43.500 L 33 43 32.500 43 L 32 43 32 43.500 M 20 44.500 L 20 45 20.500 45 L 21 45 21 44.500 L 21 44 20.500 44 L 20 44 20 44.500 M 29 45.500 L 29 46 29.500 46 L 30 46 30 45.500 L 30 45 29.500 45 L 29 45 29 45.500 M 27 46.500 L 27 47 27.500 47 L 28 47 28 46.500 L 28 46 27.500 46 L 27 46 27 46.500 M 4 52.500 L 4 53 4.500 53 L 5 53 5 52.500 L 5 52 4.500 52 L 4 52 4 52.500 M 6 53.500 L 6 54 6.500 54 L 7 54 7 53.500 L 7 53 6.500 53 L 6 53 6 53.500 M 9 54.500 L 9 55 9.500 55 L 10 55 10 54.500 L 10 54 9.500 54 L 9 54 9 54.500 M 4 55.500 L 4 56 4.500 56 L 5 56 5 55.500 L 5 55 4.500 55 L 4 55 4 55.500 M 6.333 56.667 L 7 57.333 7.667 56.667 L 8.333 56 7 56 L 5.667 56 6.333 56.667 M 18.333 56.667 L 19 57.333 19.667 56.667 L 20.333 56 19 56 L 17.667 56 18.333 56.667 M 22 57.500 L 22 58 22.500 58 L 23 58 23 57.500 L 23 57 22.500 57 L 22 57 22 57.500 M 16 58.500 L 16 59 16.500 59 L 17 59 17 58.500 L 17 58 16.500 58 L 16 58 16 58.500 M 24 58.500 L 24 59 24.500 59 L 25 59 25 58.500 L 25 58 24.500 58 L 24 58 24 58.500 M 19 59.500 L 19 60 19.500 60 L 20 60 20 59.500 L 20 59 19.500 59 L 19 59 19 59.500 M 27 59.500 L 27 60 27.500 60 L 28 60 28 59.500 L 28 59 27.500 59 L 27 59 27 59.500" stroke="none" fill="#261819" fill-rule="evenodd"/></svg>